G04 #@! TF.GenerationSoftware,KiCad,Pcbnew,7.0.6*
G04 #@! TF.CreationDate,2023-08-22T01:44:11+01:00*
G04 #@! TF.ProjectId,yasbc,79617362-632e-46b6-9963-61645f706362,rev?*
G04 #@! TF.SameCoordinates,Original*
G04 #@! TF.FileFunction,Legend,Top*
G04 #@! TF.FilePolarity,Positive*
%FSLAX46Y46*%
G04 Gerber Fmt 4.6, Leading zero omitted, Abs format (unit mm)*
G04 Created by KiCad (PCBNEW 7.0.6) date 2023-08-22 01:44:11*
%MOMM*%
%LPD*%
G01*
G04 APERTURE LIST*
G04 Aperture macros list*
%AMRoundRect*
0 Rectangle with rounded corners*
0 $1 Rounding radius*
0 $2 $3 $4 $5 $6 $7 $8 $9 X,Y pos of 4 corners*
0 Add a 4 corners polygon primitive as box body*
4,1,4,$2,$3,$4,$5,$6,$7,$8,$9,$2,$3,0*
0 Add four circle primitives for the rounded corners*
1,1,$1+$1,$2,$3*
1,1,$1+$1,$4,$5*
1,1,$1+$1,$6,$7*
1,1,$1+$1,$8,$9*
0 Add four rect primitives between the rounded corners*
20,1,$1+$1,$2,$3,$4,$5,0*
20,1,$1+$1,$4,$5,$6,$7,0*
20,1,$1+$1,$6,$7,$8,$9,0*
20,1,$1+$1,$8,$9,$2,$3,0*%
G04 Aperture macros list end*
%ADD10C,0.100000*%
%ADD11C,0.150000*%
%ADD12C,0.200000*%
%ADD13C,0.250000*%
%ADD14C,0.120000*%
%ADD15C,0.300000*%
%ADD16C,0.127000*%
%ADD17C,0.800000*%
%ADD18C,6.400000*%
%ADD19RoundRect,0.140000X0.140000X0.170000X-0.140000X0.170000X-0.140000X-0.170000X0.140000X-0.170000X0*%
%ADD20C,2.800000*%
%ADD21RoundRect,0.140000X-0.170000X0.140000X-0.170000X-0.140000X0.170000X-0.140000X0.170000X0.140000X0*%
%ADD22R,0.500000X0.800000*%
%ADD23R,0.400000X0.800000*%
%ADD24RoundRect,0.200000X-0.275000X0.200000X-0.275000X-0.200000X0.275000X-0.200000X0.275000X0.200000X0*%
%ADD25C,1.600000*%
%ADD26O,1.500000X2.000000*%
%ADD27RoundRect,0.060000X-0.720000X-0.060000X0.720000X-0.060000X0.720000X0.060000X-0.720000X0.060000X0*%
%ADD28RoundRect,0.060000X-0.060000X-0.720000X0.060000X-0.720000X0.060000X0.720000X-0.060000X0.720000X0*%
%ADD29RoundRect,0.252000X-2.748000X-2.748000X2.748000X-2.748000X2.748000X2.748000X-2.748000X2.748000X0*%
%ADD30RoundRect,0.218750X-0.256250X0.218750X-0.256250X-0.218750X0.256250X-0.218750X0.256250X0.218750X0*%
%ADD31C,1.100000*%
%ADD32R,1.600000X0.700000*%
%ADD33R,1.500000X1.200000*%
%ADD34R,2.200000X1.200000*%
%ADD35R,1.500000X1.600000*%
%ADD36C,0.650000*%
%ADD37R,0.600000X1.450000*%
%ADD38R,0.300000X1.450000*%
%ADD39O,1.000000X2.100000*%
%ADD40O,1.000000X1.600000*%
%ADD41RoundRect,0.200000X-0.200000X-0.275000X0.200000X-0.275000X0.200000X0.275000X-0.200000X0.275000X0*%
%ADD42R,2.000000X1.800000*%
%ADD43C,2.000000*%
%ADD44RoundRect,0.140000X-0.140000X-0.170000X0.140000X-0.170000X0.140000X0.170000X-0.140000X0.170000X0*%
%ADD45RoundRect,0.200000X0.200000X0.275000X-0.200000X0.275000X-0.200000X-0.275000X0.200000X-0.275000X0*%
%ADD46C,0.750000*%
%ADD47C,1.050000*%
%ADD48R,1.350000X1.000000*%
%ADD49R,2.600000X0.300000*%
%ADD50O,3.300000X1.500000*%
%ADD51O,2.300000X1.500000*%
%ADD52R,1.700000X1.700000*%
%ADD53O,1.700000X1.700000*%
%ADD54R,1.524000X1.524000*%
%ADD55C,1.524000*%
%ADD56C,3.500000*%
%ADD57C,0.400000*%
G04 APERTURE END LIST*
D10*
X76050800Y100317200D02*
X76084133Y100350533D01*
X76084133Y100350533D02*
X76150800Y100383866D01*
X76150800Y100383866D02*
X76317467Y100383866D01*
X76317467Y100383866D02*
X76384133Y100350533D01*
X76384133Y100350533D02*
X76417467Y100317200D01*
X76417467Y100317200D02*
X76450800Y100250533D01*
X76450800Y100250533D02*
X76450800Y100183866D01*
X76450800Y100183866D02*
X76417467Y100083866D01*
X76417467Y100083866D02*
X76017467Y99683866D01*
X76017467Y99683866D02*
X76450800Y99683866D01*
D11*
X65589379Y70589780D02*
X65589379Y71589780D01*
X65589379Y71589780D02*
X65827474Y71589780D01*
X65827474Y71589780D02*
X65970331Y71542161D01*
X65970331Y71542161D02*
X66065569Y71446923D01*
X66065569Y71446923D02*
X66113188Y71351685D01*
X66113188Y71351685D02*
X66160807Y71161209D01*
X66160807Y71161209D02*
X66160807Y71018352D01*
X66160807Y71018352D02*
X66113188Y70827876D01*
X66113188Y70827876D02*
X66065569Y70732638D01*
X66065569Y70732638D02*
X65970331Y70637400D01*
X65970331Y70637400D02*
X65827474Y70589780D01*
X65827474Y70589780D02*
X65589379Y70589780D01*
X66589379Y70589780D02*
X66589379Y71589780D01*
X66589379Y71589780D02*
X66827474Y71589780D01*
X66827474Y71589780D02*
X66970331Y71542161D01*
X66970331Y71542161D02*
X67065569Y71446923D01*
X67065569Y71446923D02*
X67113188Y71351685D01*
X67113188Y71351685D02*
X67160807Y71161209D01*
X67160807Y71161209D02*
X67160807Y71018352D01*
X67160807Y71018352D02*
X67113188Y70827876D01*
X67113188Y70827876D02*
X67065569Y70732638D01*
X67065569Y70732638D02*
X66970331Y70637400D01*
X66970331Y70637400D02*
X66827474Y70589780D01*
X66827474Y70589780D02*
X66589379Y70589780D01*
X68160807Y70589780D02*
X67827474Y71065971D01*
X67589379Y70589780D02*
X67589379Y71589780D01*
X67589379Y71589780D02*
X67970331Y71589780D01*
X67970331Y71589780D02*
X68065569Y71542161D01*
X68065569Y71542161D02*
X68113188Y71494542D01*
X68113188Y71494542D02*
X68160807Y71399304D01*
X68160807Y71399304D02*
X68160807Y71256447D01*
X68160807Y71256447D02*
X68113188Y71161209D01*
X68113188Y71161209D02*
X68065569Y71113590D01*
X68065569Y71113590D02*
X67970331Y71065971D01*
X67970331Y71065971D02*
X67589379Y71065971D01*
X68494141Y71589780D02*
X69113188Y71589780D01*
X69113188Y71589780D02*
X68779855Y71208828D01*
X68779855Y71208828D02*
X68922712Y71208828D01*
X68922712Y71208828D02*
X69017950Y71161209D01*
X69017950Y71161209D02*
X69065569Y71113590D01*
X69065569Y71113590D02*
X69113188Y71018352D01*
X69113188Y71018352D02*
X69113188Y70780257D01*
X69113188Y70780257D02*
X69065569Y70685019D01*
X69065569Y70685019D02*
X69017950Y70637400D01*
X69017950Y70637400D02*
X68922712Y70589780D01*
X68922712Y70589780D02*
X68636998Y70589780D01*
X68636998Y70589780D02*
X68541760Y70637400D01*
X68541760Y70637400D02*
X68494141Y70685019D01*
D12*
X129449292Y66146400D02*
X130363578Y66146400D01*
X129906435Y65689257D02*
X129906435Y66603542D01*
D11*
X74543150Y90883847D02*
X74543150Y90217180D01*
X74305055Y91264800D02*
X74066960Y90550514D01*
X74066960Y90550514D02*
X74686007Y90550514D01*
D10*
X128305877Y105165900D02*
X128339210Y105199233D01*
X128339210Y105199233D02*
X128405877Y105232566D01*
X128405877Y105232566D02*
X128572544Y105232566D01*
X128572544Y105232566D02*
X128639210Y105199233D01*
X128639210Y105199233D02*
X128672544Y105165900D01*
X128672544Y105165900D02*
X128705877Y105099233D01*
X128705877Y105099233D02*
X128705877Y105032566D01*
X128705877Y105032566D02*
X128672544Y104932566D01*
X128672544Y104932566D02*
X128272544Y104532566D01*
X128272544Y104532566D02*
X128705877Y104532566D01*
X77643068Y100380866D02*
X78076401Y100380866D01*
X78076401Y100380866D02*
X77843068Y100114200D01*
X77843068Y100114200D02*
X77943068Y100114200D01*
X77943068Y100114200D02*
X78009734Y100080866D01*
X78009734Y100080866D02*
X78043068Y100047533D01*
X78043068Y100047533D02*
X78076401Y99980866D01*
X78076401Y99980866D02*
X78076401Y99814200D01*
X78076401Y99814200D02*
X78043068Y99747533D01*
X78043068Y99747533D02*
X78009734Y99714200D01*
X78009734Y99714200D02*
X77943068Y99680866D01*
X77943068Y99680866D02*
X77743068Y99680866D01*
X77743068Y99680866D02*
X77676401Y99714200D01*
X77676401Y99714200D02*
X77643068Y99747533D01*
D11*
X96658276Y94403200D02*
X96801133Y94355580D01*
X96801133Y94355580D02*
X97039228Y94355580D01*
X97039228Y94355580D02*
X97134466Y94403200D01*
X97134466Y94403200D02*
X97182085Y94450819D01*
X97182085Y94450819D02*
X97229704Y94546057D01*
X97229704Y94546057D02*
X97229704Y94641295D01*
X97229704Y94641295D02*
X97182085Y94736533D01*
X97182085Y94736533D02*
X97134466Y94784152D01*
X97134466Y94784152D02*
X97039228Y94831771D01*
X97039228Y94831771D02*
X96848752Y94879390D01*
X96848752Y94879390D02*
X96753514Y94927009D01*
X96753514Y94927009D02*
X96705895Y94974628D01*
X96705895Y94974628D02*
X96658276Y95069866D01*
X96658276Y95069866D02*
X96658276Y95165104D01*
X96658276Y95165104D02*
X96705895Y95260342D01*
X96705895Y95260342D02*
X96753514Y95307961D01*
X96753514Y95307961D02*
X96848752Y95355580D01*
X96848752Y95355580D02*
X97086847Y95355580D01*
X97086847Y95355580D02*
X97229704Y95307961D01*
X97848752Y95355580D02*
X98039228Y95355580D01*
X98039228Y95355580D02*
X98134466Y95307961D01*
X98134466Y95307961D02*
X98229704Y95212723D01*
X98229704Y95212723D02*
X98277323Y95022247D01*
X98277323Y95022247D02*
X98277323Y94688914D01*
X98277323Y94688914D02*
X98229704Y94498438D01*
X98229704Y94498438D02*
X98134466Y94403200D01*
X98134466Y94403200D02*
X98039228Y94355580D01*
X98039228Y94355580D02*
X97848752Y94355580D01*
X97848752Y94355580D02*
X97753514Y94403200D01*
X97753514Y94403200D02*
X97658276Y94498438D01*
X97658276Y94498438D02*
X97610657Y94688914D01*
X97610657Y94688914D02*
X97610657Y95022247D01*
X97610657Y95022247D02*
X97658276Y95212723D01*
X97658276Y95212723D02*
X97753514Y95307961D01*
X97753514Y95307961D02*
X97848752Y95355580D01*
X99277323Y94450819D02*
X99229704Y94403200D01*
X99229704Y94403200D02*
X99086847Y94355580D01*
X99086847Y94355580D02*
X98991609Y94355580D01*
X98991609Y94355580D02*
X98848752Y94403200D01*
X98848752Y94403200D02*
X98753514Y94498438D01*
X98753514Y94498438D02*
X98705895Y94593676D01*
X98705895Y94593676D02*
X98658276Y94784152D01*
X98658276Y94784152D02*
X98658276Y94927009D01*
X98658276Y94927009D02*
X98705895Y95117485D01*
X98705895Y95117485D02*
X98753514Y95212723D01*
X98753514Y95212723D02*
X98848752Y95307961D01*
X98848752Y95307961D02*
X98991609Y95355580D01*
X98991609Y95355580D02*
X99086847Y95355580D01*
X99086847Y95355580D02*
X99229704Y95307961D01*
X99229704Y95307961D02*
X99277323Y95260342D01*
X92015418Y92412247D02*
X91777323Y92412247D01*
X91777323Y92412247D02*
X91777323Y93840819D01*
X91777323Y93840819D02*
X92015418Y93840819D01*
X92348752Y93031295D02*
X92824942Y93031295D01*
X92253514Y92745580D02*
X92586847Y93745580D01*
X92586847Y93745580D02*
X92920180Y92745580D01*
X93729704Y92745580D02*
X93253514Y92745580D01*
X93253514Y92745580D02*
X93253514Y93745580D01*
X94539228Y92745580D02*
X94063038Y92745580D01*
X94063038Y92745580D02*
X94063038Y93745580D01*
X94777324Y93745580D02*
X95015419Y92745580D01*
X95015419Y92745580D02*
X95205895Y93459866D01*
X95205895Y93459866D02*
X95396371Y92745580D01*
X95396371Y92745580D02*
X95634467Y93745580D01*
X96015419Y92745580D02*
X96015419Y93745580D01*
X96491609Y92745580D02*
X96491609Y93745580D01*
X96491609Y93745580D02*
X97063037Y92745580D01*
X97063037Y92745580D02*
X97063037Y93745580D01*
X97539228Y92745580D02*
X97539228Y93745580D01*
X97539228Y93745580D02*
X98110656Y92745580D01*
X98110656Y92745580D02*
X98110656Y93745580D01*
X98586847Y93269390D02*
X98920180Y93269390D01*
X99063037Y92745580D02*
X98586847Y92745580D01*
X98586847Y92745580D02*
X98586847Y93745580D01*
X98586847Y93745580D02*
X99063037Y93745580D01*
X100063037Y92745580D02*
X99729704Y93221771D01*
X99491609Y92745580D02*
X99491609Y93745580D01*
X99491609Y93745580D02*
X99872561Y93745580D01*
X99872561Y93745580D02*
X99967799Y93697961D01*
X99967799Y93697961D02*
X100015418Y93650342D01*
X100015418Y93650342D02*
X100063037Y93555104D01*
X100063037Y93555104D02*
X100063037Y93412247D01*
X100063037Y93412247D02*
X100015418Y93317009D01*
X100015418Y93317009D02*
X99967799Y93269390D01*
X99967799Y93269390D02*
X99872561Y93221771D01*
X99872561Y93221771D02*
X99491609Y93221771D01*
X101205895Y93031295D02*
X101682085Y93031295D01*
X101110657Y92745580D02*
X101443990Y93745580D01*
X101443990Y93745580D02*
X101777323Y92745580D01*
X102634466Y92745580D02*
X102063038Y92745580D01*
X102348752Y92745580D02*
X102348752Y93745580D01*
X102348752Y93745580D02*
X102253514Y93602723D01*
X102253514Y93602723D02*
X102158276Y93507485D01*
X102158276Y93507485D02*
X102063038Y93459866D01*
X102967800Y93745580D02*
X103586847Y93745580D01*
X103586847Y93745580D02*
X103253514Y93364628D01*
X103253514Y93364628D02*
X103396371Y93364628D01*
X103396371Y93364628D02*
X103491609Y93317009D01*
X103491609Y93317009D02*
X103539228Y93269390D01*
X103539228Y93269390D02*
X103586847Y93174152D01*
X103586847Y93174152D02*
X103586847Y92936057D01*
X103586847Y92936057D02*
X103539228Y92840819D01*
X103539228Y92840819D02*
X103491609Y92793200D01*
X103491609Y92793200D02*
X103396371Y92745580D01*
X103396371Y92745580D02*
X103110657Y92745580D01*
X103110657Y92745580D02*
X103015419Y92793200D01*
X103015419Y92793200D02*
X102967800Y92840819D01*
X103920181Y92412247D02*
X104158276Y92412247D01*
X104158276Y92412247D02*
X104158276Y93840819D01*
X104158276Y93840819D02*
X103920181Y93840819D01*
X69146991Y97580695D02*
X69623181Y97580695D01*
X69051753Y97294980D02*
X69385086Y98294980D01*
X69385086Y98294980D02*
X69718419Y97294980D01*
X70051753Y98294980D02*
X70051753Y97485457D01*
X70051753Y97485457D02*
X70099372Y97390219D01*
X70099372Y97390219D02*
X70146991Y97342600D01*
X70146991Y97342600D02*
X70242229Y97294980D01*
X70242229Y97294980D02*
X70432705Y97294980D01*
X70432705Y97294980D02*
X70527943Y97342600D01*
X70527943Y97342600D02*
X70575562Y97390219D01*
X70575562Y97390219D02*
X70623181Y97485457D01*
X70623181Y97485457D02*
X70623181Y98294980D01*
X71099372Y97294980D02*
X71099372Y98294980D01*
X71099372Y98294980D02*
X71337467Y98294980D01*
X71337467Y98294980D02*
X71480324Y98247361D01*
X71480324Y98247361D02*
X71575562Y98152123D01*
X71575562Y98152123D02*
X71623181Y98056885D01*
X71623181Y98056885D02*
X71670800Y97866409D01*
X71670800Y97866409D02*
X71670800Y97723552D01*
X71670800Y97723552D02*
X71623181Y97533076D01*
X71623181Y97533076D02*
X71575562Y97437838D01*
X71575562Y97437838D02*
X71480324Y97342600D01*
X71480324Y97342600D02*
X71337467Y97294980D01*
X71337467Y97294980D02*
X71099372Y97294980D01*
X72099372Y97294980D02*
X72099372Y98294980D01*
X72766038Y98294980D02*
X72956514Y98294980D01*
X72956514Y98294980D02*
X73051752Y98247361D01*
X73051752Y98247361D02*
X73146990Y98152123D01*
X73146990Y98152123D02*
X73194609Y97961647D01*
X73194609Y97961647D02*
X73194609Y97628314D01*
X73194609Y97628314D02*
X73146990Y97437838D01*
X73146990Y97437838D02*
X73051752Y97342600D01*
X73051752Y97342600D02*
X72956514Y97294980D01*
X72956514Y97294980D02*
X72766038Y97294980D01*
X72766038Y97294980D02*
X72670800Y97342600D01*
X72670800Y97342600D02*
X72575562Y97437838D01*
X72575562Y97437838D02*
X72527943Y97628314D01*
X72527943Y97628314D02*
X72527943Y97961647D01*
X72527943Y97961647D02*
X72575562Y98152123D01*
X72575562Y98152123D02*
X72670800Y98247361D01*
X72670800Y98247361D02*
X72766038Y98294980D01*
X70170800Y96684980D02*
X70361276Y96684980D01*
X70361276Y96684980D02*
X70456514Y96637361D01*
X70456514Y96637361D02*
X70551752Y96542123D01*
X70551752Y96542123D02*
X70599371Y96351647D01*
X70599371Y96351647D02*
X70599371Y96018314D01*
X70599371Y96018314D02*
X70551752Y95827838D01*
X70551752Y95827838D02*
X70456514Y95732600D01*
X70456514Y95732600D02*
X70361276Y95684980D01*
X70361276Y95684980D02*
X70170800Y95684980D01*
X70170800Y95684980D02*
X70075562Y95732600D01*
X70075562Y95732600D02*
X69980324Y95827838D01*
X69980324Y95827838D02*
X69932705Y96018314D01*
X69932705Y96018314D02*
X69932705Y96351647D01*
X69932705Y96351647D02*
X69980324Y96542123D01*
X69980324Y96542123D02*
X70075562Y96637361D01*
X70075562Y96637361D02*
X70170800Y96684980D01*
X71027943Y96684980D02*
X71027943Y95875457D01*
X71027943Y95875457D02*
X71075562Y95780219D01*
X71075562Y95780219D02*
X71123181Y95732600D01*
X71123181Y95732600D02*
X71218419Y95684980D01*
X71218419Y95684980D02*
X71408895Y95684980D01*
X71408895Y95684980D02*
X71504133Y95732600D01*
X71504133Y95732600D02*
X71551752Y95780219D01*
X71551752Y95780219D02*
X71599371Y95875457D01*
X71599371Y95875457D02*
X71599371Y96684980D01*
X71932705Y96684980D02*
X72504133Y96684980D01*
X72218419Y95684980D02*
X72218419Y96684980D01*
X65884588Y90300180D02*
X65313160Y90300180D01*
X65598874Y90300180D02*
X65598874Y91300180D01*
X65598874Y91300180D02*
X65503636Y91157323D01*
X65503636Y91157323D02*
X65408398Y91062085D01*
X65408398Y91062085D02*
X65313160Y91014466D01*
D10*
X74825200Y99690866D02*
X74425200Y99690866D01*
X74625200Y99690866D02*
X74625200Y100390866D01*
X74625200Y100390866D02*
X74558533Y100290866D01*
X74558533Y100290866D02*
X74491867Y100224200D01*
X74491867Y100224200D02*
X74425200Y100190866D01*
D12*
X129449292Y59796400D02*
X130363578Y59796400D01*
X129906435Y59339257D02*
X129906435Y60253542D01*
D11*
X74425350Y85204180D02*
X74234874Y85204180D01*
X74234874Y85204180D02*
X74139636Y85156561D01*
X74139636Y85156561D02*
X74092017Y85108942D01*
X74092017Y85108942D02*
X73996779Y84966085D01*
X73996779Y84966085D02*
X73949160Y84775609D01*
X73949160Y84775609D02*
X73949160Y84394657D01*
X73949160Y84394657D02*
X73996779Y84299419D01*
X73996779Y84299419D02*
X74044398Y84251800D01*
X74044398Y84251800D02*
X74139636Y84204180D01*
X74139636Y84204180D02*
X74330112Y84204180D01*
X74330112Y84204180D02*
X74425350Y84251800D01*
X74425350Y84251800D02*
X74472969Y84299419D01*
X74472969Y84299419D02*
X74520588Y84394657D01*
X74520588Y84394657D02*
X74520588Y84632752D01*
X74520588Y84632752D02*
X74472969Y84727990D01*
X74472969Y84727990D02*
X74425350Y84775609D01*
X74425350Y84775609D02*
X74330112Y84823228D01*
X74330112Y84823228D02*
X74139636Y84823228D01*
X74139636Y84823228D02*
X74044398Y84775609D01*
X74044398Y84775609D02*
X73996779Y84727990D01*
X73996779Y84727990D02*
X73949160Y84632752D01*
D12*
X65384149Y93238400D02*
X65555578Y93181257D01*
X65555578Y93181257D02*
X65841292Y93181257D01*
X65841292Y93181257D02*
X65955578Y93238400D01*
X65955578Y93238400D02*
X66012720Y93295542D01*
X66012720Y93295542D02*
X66069863Y93409828D01*
X66069863Y93409828D02*
X66069863Y93524114D01*
X66069863Y93524114D02*
X66012720Y93638400D01*
X66012720Y93638400D02*
X65955578Y93695542D01*
X65955578Y93695542D02*
X65841292Y93752685D01*
X65841292Y93752685D02*
X65612720Y93809828D01*
X65612720Y93809828D02*
X65498435Y93866971D01*
X65498435Y93866971D02*
X65441292Y93924114D01*
X65441292Y93924114D02*
X65384149Y94038400D01*
X65384149Y94038400D02*
X65384149Y94152685D01*
X65384149Y94152685D02*
X65441292Y94266971D01*
X65441292Y94266971D02*
X65498435Y94324114D01*
X65498435Y94324114D02*
X65612720Y94381257D01*
X65612720Y94381257D02*
X65898435Y94381257D01*
X65898435Y94381257D02*
X66069863Y94324114D01*
X66469863Y94381257D02*
X66755577Y93181257D01*
X66755577Y93181257D02*
X66984149Y94038400D01*
X66984149Y94038400D02*
X67212720Y93181257D01*
X67212720Y93181257D02*
X67498435Y94381257D01*
X67898435Y94266971D02*
X67955578Y94324114D01*
X67955578Y94324114D02*
X68069864Y94381257D01*
X68069864Y94381257D02*
X68355578Y94381257D01*
X68355578Y94381257D02*
X68469864Y94324114D01*
X68469864Y94324114D02*
X68527006Y94266971D01*
X68527006Y94266971D02*
X68584149Y94152685D01*
X68584149Y94152685D02*
X68584149Y94038400D01*
X68584149Y94038400D02*
X68527006Y93866971D01*
X68527006Y93866971D02*
X67841292Y93181257D01*
X67841292Y93181257D02*
X68584149Y93181257D01*
D11*
X59906114Y104873580D02*
X59906114Y104064057D01*
X59906114Y104064057D02*
X59953733Y103968819D01*
X59953733Y103968819D02*
X60001352Y103921200D01*
X60001352Y103921200D02*
X60096590Y103873580D01*
X60096590Y103873580D02*
X60287066Y103873580D01*
X60287066Y103873580D02*
X60382304Y103921200D01*
X60382304Y103921200D02*
X60429923Y103968819D01*
X60429923Y103968819D02*
X60477542Y104064057D01*
X60477542Y104064057D02*
X60477542Y104873580D01*
X60906114Y103921200D02*
X61048971Y103873580D01*
X61048971Y103873580D02*
X61287066Y103873580D01*
X61287066Y103873580D02*
X61382304Y103921200D01*
X61382304Y103921200D02*
X61429923Y103968819D01*
X61429923Y103968819D02*
X61477542Y104064057D01*
X61477542Y104064057D02*
X61477542Y104159295D01*
X61477542Y104159295D02*
X61429923Y104254533D01*
X61429923Y104254533D02*
X61382304Y104302152D01*
X61382304Y104302152D02*
X61287066Y104349771D01*
X61287066Y104349771D02*
X61096590Y104397390D01*
X61096590Y104397390D02*
X61001352Y104445009D01*
X61001352Y104445009D02*
X60953733Y104492628D01*
X60953733Y104492628D02*
X60906114Y104587866D01*
X60906114Y104587866D02*
X60906114Y104683104D01*
X60906114Y104683104D02*
X60953733Y104778342D01*
X60953733Y104778342D02*
X61001352Y104825961D01*
X61001352Y104825961D02*
X61096590Y104873580D01*
X61096590Y104873580D02*
X61334685Y104873580D01*
X61334685Y104873580D02*
X61477542Y104825961D01*
X61906114Y104397390D02*
X62239447Y104397390D01*
X62382304Y103873580D02*
X61906114Y103873580D01*
X61906114Y103873580D02*
X61906114Y104873580D01*
X61906114Y104873580D02*
X62382304Y104873580D01*
X63382304Y103873580D02*
X63048971Y104349771D01*
X62810876Y103873580D02*
X62810876Y104873580D01*
X62810876Y104873580D02*
X63191828Y104873580D01*
X63191828Y104873580D02*
X63287066Y104825961D01*
X63287066Y104825961D02*
X63334685Y104778342D01*
X63334685Y104778342D02*
X63382304Y104683104D01*
X63382304Y104683104D02*
X63382304Y104540247D01*
X63382304Y104540247D02*
X63334685Y104445009D01*
X63334685Y104445009D02*
X63287066Y104397390D01*
X63287066Y104397390D02*
X63191828Y104349771D01*
X63191828Y104349771D02*
X62810876Y104349771D01*
X58191829Y102311200D02*
X58334686Y102263580D01*
X58334686Y102263580D02*
X58572781Y102263580D01*
X58572781Y102263580D02*
X58668019Y102311200D01*
X58668019Y102311200D02*
X58715638Y102358819D01*
X58715638Y102358819D02*
X58763257Y102454057D01*
X58763257Y102454057D02*
X58763257Y102549295D01*
X58763257Y102549295D02*
X58715638Y102644533D01*
X58715638Y102644533D02*
X58668019Y102692152D01*
X58668019Y102692152D02*
X58572781Y102739771D01*
X58572781Y102739771D02*
X58382305Y102787390D01*
X58382305Y102787390D02*
X58287067Y102835009D01*
X58287067Y102835009D02*
X58239448Y102882628D01*
X58239448Y102882628D02*
X58191829Y102977866D01*
X58191829Y102977866D02*
X58191829Y103073104D01*
X58191829Y103073104D02*
X58239448Y103168342D01*
X58239448Y103168342D02*
X58287067Y103215961D01*
X58287067Y103215961D02*
X58382305Y103263580D01*
X58382305Y103263580D02*
X58620400Y103263580D01*
X58620400Y103263580D02*
X58763257Y103215961D01*
X59096591Y103263580D02*
X59334686Y102263580D01*
X59334686Y102263580D02*
X59525162Y102977866D01*
X59525162Y102977866D02*
X59715638Y102263580D01*
X59715638Y102263580D02*
X59953734Y103263580D01*
X60334686Y102263580D02*
X60334686Y103263580D01*
X60668019Y103263580D02*
X61239447Y103263580D01*
X60953733Y102263580D02*
X60953733Y103263580D01*
X62144209Y102358819D02*
X62096590Y102311200D01*
X62096590Y102311200D02*
X61953733Y102263580D01*
X61953733Y102263580D02*
X61858495Y102263580D01*
X61858495Y102263580D02*
X61715638Y102311200D01*
X61715638Y102311200D02*
X61620400Y102406438D01*
X61620400Y102406438D02*
X61572781Y102501676D01*
X61572781Y102501676D02*
X61525162Y102692152D01*
X61525162Y102692152D02*
X61525162Y102835009D01*
X61525162Y102835009D02*
X61572781Y103025485D01*
X61572781Y103025485D02*
X61620400Y103120723D01*
X61620400Y103120723D02*
X61715638Y103215961D01*
X61715638Y103215961D02*
X61858495Y103263580D01*
X61858495Y103263580D02*
X61953733Y103263580D01*
X61953733Y103263580D02*
X62096590Y103215961D01*
X62096590Y103215961D02*
X62144209Y103168342D01*
X62572781Y102263580D02*
X62572781Y103263580D01*
X62572781Y102787390D02*
X63144209Y102787390D01*
X63144209Y102263580D02*
X63144209Y103263580D01*
X63620400Y102787390D02*
X63953733Y102787390D01*
X64096590Y102263580D02*
X63620400Y102263580D01*
X63620400Y102263580D02*
X63620400Y103263580D01*
X63620400Y103263580D02*
X64096590Y103263580D01*
X64477543Y102311200D02*
X64620400Y102263580D01*
X64620400Y102263580D02*
X64858495Y102263580D01*
X64858495Y102263580D02*
X64953733Y102311200D01*
X64953733Y102311200D02*
X65001352Y102358819D01*
X65001352Y102358819D02*
X65048971Y102454057D01*
X65048971Y102454057D02*
X65048971Y102549295D01*
X65048971Y102549295D02*
X65001352Y102644533D01*
X65001352Y102644533D02*
X64953733Y102692152D01*
X64953733Y102692152D02*
X64858495Y102739771D01*
X64858495Y102739771D02*
X64668019Y102787390D01*
X64668019Y102787390D02*
X64572781Y102835009D01*
X64572781Y102835009D02*
X64525162Y102882628D01*
X64525162Y102882628D02*
X64477543Y102977866D01*
X64477543Y102977866D02*
X64477543Y103073104D01*
X64477543Y103073104D02*
X64525162Y103168342D01*
X64525162Y103168342D02*
X64572781Y103215961D01*
X64572781Y103215961D02*
X64668019Y103263580D01*
X64668019Y103263580D02*
X64906114Y103263580D01*
X64906114Y103263580D02*
X65048971Y103215961D01*
X76360828Y101790380D02*
X76360828Y100980857D01*
X76360828Y100980857D02*
X76408447Y100885619D01*
X76408447Y100885619D02*
X76456066Y100838000D01*
X76456066Y100838000D02*
X76551304Y100790380D01*
X76551304Y100790380D02*
X76741780Y100790380D01*
X76741780Y100790380D02*
X76837018Y100838000D01*
X76837018Y100838000D02*
X76884637Y100885619D01*
X76884637Y100885619D02*
X76932256Y100980857D01*
X76932256Y100980857D02*
X76932256Y101790380D01*
X77360828Y100838000D02*
X77503685Y100790380D01*
X77503685Y100790380D02*
X77741780Y100790380D01*
X77741780Y100790380D02*
X77837018Y100838000D01*
X77837018Y100838000D02*
X77884637Y100885619D01*
X77884637Y100885619D02*
X77932256Y100980857D01*
X77932256Y100980857D02*
X77932256Y101076095D01*
X77932256Y101076095D02*
X77884637Y101171333D01*
X77884637Y101171333D02*
X77837018Y101218952D01*
X77837018Y101218952D02*
X77741780Y101266571D01*
X77741780Y101266571D02*
X77551304Y101314190D01*
X77551304Y101314190D02*
X77456066Y101361809D01*
X77456066Y101361809D02*
X77408447Y101409428D01*
X77408447Y101409428D02*
X77360828Y101504666D01*
X77360828Y101504666D02*
X77360828Y101599904D01*
X77360828Y101599904D02*
X77408447Y101695142D01*
X77408447Y101695142D02*
X77456066Y101742761D01*
X77456066Y101742761D02*
X77551304Y101790380D01*
X77551304Y101790380D02*
X77789399Y101790380D01*
X77789399Y101790380D02*
X77932256Y101742761D01*
X78360828Y101314190D02*
X78694161Y101314190D01*
X78837018Y100790380D02*
X78360828Y100790380D01*
X78360828Y100790380D02*
X78360828Y101790380D01*
X78360828Y101790380D02*
X78837018Y101790380D01*
X79837018Y100790380D02*
X79503685Y101266571D01*
X79265590Y100790380D02*
X79265590Y101790380D01*
X79265590Y101790380D02*
X79646542Y101790380D01*
X79646542Y101790380D02*
X79741780Y101742761D01*
X79741780Y101742761D02*
X79789399Y101695142D01*
X79789399Y101695142D02*
X79837018Y101599904D01*
X79837018Y101599904D02*
X79837018Y101457047D01*
X79837018Y101457047D02*
X79789399Y101361809D01*
X79789399Y101361809D02*
X79741780Y101314190D01*
X79741780Y101314190D02*
X79646542Y101266571D01*
X79646542Y101266571D02*
X79265590Y101266571D01*
X81503685Y100790380D02*
X81027495Y100790380D01*
X81027495Y100790380D02*
X81027495Y101790380D01*
X81837019Y101314190D02*
X82170352Y101314190D01*
X82313209Y100790380D02*
X81837019Y100790380D01*
X81837019Y100790380D02*
X81837019Y101790380D01*
X81837019Y101790380D02*
X82313209Y101790380D01*
X82741781Y100790380D02*
X82741781Y101790380D01*
X82741781Y101790380D02*
X82979876Y101790380D01*
X82979876Y101790380D02*
X83122733Y101742761D01*
X83122733Y101742761D02*
X83217971Y101647523D01*
X83217971Y101647523D02*
X83265590Y101552285D01*
X83265590Y101552285D02*
X83313209Y101361809D01*
X83313209Y101361809D02*
X83313209Y101218952D01*
X83313209Y101218952D02*
X83265590Y101028476D01*
X83265590Y101028476D02*
X83217971Y100933238D01*
X83217971Y100933238D02*
X83122733Y100838000D01*
X83122733Y100838000D02*
X82979876Y100790380D01*
X82979876Y100790380D02*
X82741781Y100790380D01*
X83694162Y100838000D02*
X83837019Y100790380D01*
X83837019Y100790380D02*
X84075114Y100790380D01*
X84075114Y100790380D02*
X84170352Y100838000D01*
X84170352Y100838000D02*
X84217971Y100885619D01*
X84217971Y100885619D02*
X84265590Y100980857D01*
X84265590Y100980857D02*
X84265590Y101076095D01*
X84265590Y101076095D02*
X84217971Y101171333D01*
X84217971Y101171333D02*
X84170352Y101218952D01*
X84170352Y101218952D02*
X84075114Y101266571D01*
X84075114Y101266571D02*
X83884638Y101314190D01*
X83884638Y101314190D02*
X83789400Y101361809D01*
X83789400Y101361809D02*
X83741781Y101409428D01*
X83741781Y101409428D02*
X83694162Y101504666D01*
X83694162Y101504666D02*
X83694162Y101599904D01*
X83694162Y101599904D02*
X83741781Y101695142D01*
X83741781Y101695142D02*
X83789400Y101742761D01*
X83789400Y101742761D02*
X83884638Y101790380D01*
X83884638Y101790380D02*
X84122733Y101790380D01*
X84122733Y101790380D02*
X84265590Y101742761D01*
X96528095Y63598580D02*
X96528095Y62789057D01*
X96528095Y62789057D02*
X96575714Y62693819D01*
X96575714Y62693819D02*
X96623333Y62646200D01*
X96623333Y62646200D02*
X96718571Y62598580D01*
X96718571Y62598580D02*
X96909047Y62598580D01*
X96909047Y62598580D02*
X97004285Y62646200D01*
X97004285Y62646200D02*
X97051904Y62693819D01*
X97051904Y62693819D02*
X97099523Y62789057D01*
X97099523Y62789057D02*
X97099523Y63598580D01*
X97528095Y62646200D02*
X97670952Y62598580D01*
X97670952Y62598580D02*
X97909047Y62598580D01*
X97909047Y62598580D02*
X98004285Y62646200D01*
X98004285Y62646200D02*
X98051904Y62693819D01*
X98051904Y62693819D02*
X98099523Y62789057D01*
X98099523Y62789057D02*
X98099523Y62884295D01*
X98099523Y62884295D02*
X98051904Y62979533D01*
X98051904Y62979533D02*
X98004285Y63027152D01*
X98004285Y63027152D02*
X97909047Y63074771D01*
X97909047Y63074771D02*
X97718571Y63122390D01*
X97718571Y63122390D02*
X97623333Y63170009D01*
X97623333Y63170009D02*
X97575714Y63217628D01*
X97575714Y63217628D02*
X97528095Y63312866D01*
X97528095Y63312866D02*
X97528095Y63408104D01*
X97528095Y63408104D02*
X97575714Y63503342D01*
X97575714Y63503342D02*
X97623333Y63550961D01*
X97623333Y63550961D02*
X97718571Y63598580D01*
X97718571Y63598580D02*
X97956666Y63598580D01*
X97956666Y63598580D02*
X98099523Y63550961D01*
X98861428Y63122390D02*
X99004285Y63074771D01*
X99004285Y63074771D02*
X99051904Y63027152D01*
X99051904Y63027152D02*
X99099523Y62931914D01*
X99099523Y62931914D02*
X99099523Y62789057D01*
X99099523Y62789057D02*
X99051904Y62693819D01*
X99051904Y62693819D02*
X99004285Y62646200D01*
X99004285Y62646200D02*
X98909047Y62598580D01*
X98909047Y62598580D02*
X98528095Y62598580D01*
X98528095Y62598580D02*
X98528095Y63598580D01*
X98528095Y63598580D02*
X98861428Y63598580D01*
X98861428Y63598580D02*
X98956666Y63550961D01*
X98956666Y63550961D02*
X99004285Y63503342D01*
X99004285Y63503342D02*
X99051904Y63408104D01*
X99051904Y63408104D02*
X99051904Y63312866D01*
X99051904Y63312866D02*
X99004285Y63217628D01*
X99004285Y63217628D02*
X98956666Y63170009D01*
X98956666Y63170009D02*
X98861428Y63122390D01*
X98861428Y63122390D02*
X98528095Y63122390D01*
X96647143Y60988580D02*
X96647143Y61988580D01*
X96647143Y61988580D02*
X96885238Y61988580D01*
X96885238Y61988580D02*
X97028095Y61940961D01*
X97028095Y61940961D02*
X97123333Y61845723D01*
X97123333Y61845723D02*
X97170952Y61750485D01*
X97170952Y61750485D02*
X97218571Y61560009D01*
X97218571Y61560009D02*
X97218571Y61417152D01*
X97218571Y61417152D02*
X97170952Y61226676D01*
X97170952Y61226676D02*
X97123333Y61131438D01*
X97123333Y61131438D02*
X97028095Y61036200D01*
X97028095Y61036200D02*
X96885238Y60988580D01*
X96885238Y60988580D02*
X96647143Y60988580D01*
X97647143Y61512390D02*
X97980476Y61512390D01*
X98123333Y60988580D02*
X97647143Y60988580D01*
X97647143Y60988580D02*
X97647143Y61988580D01*
X97647143Y61988580D02*
X98123333Y61988580D01*
X98409048Y61988580D02*
X98742381Y60988580D01*
X98742381Y60988580D02*
X99075714Y61988580D01*
X118492686Y74533400D02*
X118635543Y74485780D01*
X118635543Y74485780D02*
X118873638Y74485780D01*
X118873638Y74485780D02*
X118968876Y74533400D01*
X118968876Y74533400D02*
X119016495Y74581019D01*
X119016495Y74581019D02*
X119064114Y74676257D01*
X119064114Y74676257D02*
X119064114Y74771495D01*
X119064114Y74771495D02*
X119016495Y74866733D01*
X119016495Y74866733D02*
X118968876Y74914352D01*
X118968876Y74914352D02*
X118873638Y74961971D01*
X118873638Y74961971D02*
X118683162Y75009590D01*
X118683162Y75009590D02*
X118587924Y75057209D01*
X118587924Y75057209D02*
X118540305Y75104828D01*
X118540305Y75104828D02*
X118492686Y75200066D01*
X118492686Y75200066D02*
X118492686Y75295304D01*
X118492686Y75295304D02*
X118540305Y75390542D01*
X118540305Y75390542D02*
X118587924Y75438161D01*
X118587924Y75438161D02*
X118683162Y75485780D01*
X118683162Y75485780D02*
X118921257Y75485780D01*
X118921257Y75485780D02*
X119064114Y75438161D01*
X119492686Y74485780D02*
X119492686Y75485780D01*
X119492686Y75485780D02*
X119730781Y75485780D01*
X119730781Y75485780D02*
X119873638Y75438161D01*
X119873638Y75438161D02*
X119968876Y75342923D01*
X119968876Y75342923D02*
X120016495Y75247685D01*
X120016495Y75247685D02*
X120064114Y75057209D01*
X120064114Y75057209D02*
X120064114Y74914352D01*
X120064114Y74914352D02*
X120016495Y74723876D01*
X120016495Y74723876D02*
X119968876Y74628638D01*
X119968876Y74628638D02*
X119873638Y74533400D01*
X119873638Y74533400D02*
X119730781Y74485780D01*
X119730781Y74485780D02*
X119492686Y74485780D01*
X118159352Y72971019D02*
X118111733Y72923400D01*
X118111733Y72923400D02*
X117968876Y72875780D01*
X117968876Y72875780D02*
X117873638Y72875780D01*
X117873638Y72875780D02*
X117730781Y72923400D01*
X117730781Y72923400D02*
X117635543Y73018638D01*
X117635543Y73018638D02*
X117587924Y73113876D01*
X117587924Y73113876D02*
X117540305Y73304352D01*
X117540305Y73304352D02*
X117540305Y73447209D01*
X117540305Y73447209D02*
X117587924Y73637685D01*
X117587924Y73637685D02*
X117635543Y73732923D01*
X117635543Y73732923D02*
X117730781Y73828161D01*
X117730781Y73828161D02*
X117873638Y73875780D01*
X117873638Y73875780D02*
X117968876Y73875780D01*
X117968876Y73875780D02*
X118111733Y73828161D01*
X118111733Y73828161D02*
X118159352Y73780542D01*
X118540305Y73161495D02*
X119016495Y73161495D01*
X118445067Y72875780D02*
X118778400Y73875780D01*
X118778400Y73875780D02*
X119111733Y72875780D01*
X120016495Y72875780D02*
X119683162Y73351971D01*
X119445067Y72875780D02*
X119445067Y73875780D01*
X119445067Y73875780D02*
X119826019Y73875780D01*
X119826019Y73875780D02*
X119921257Y73828161D01*
X119921257Y73828161D02*
X119968876Y73780542D01*
X119968876Y73780542D02*
X120016495Y73685304D01*
X120016495Y73685304D02*
X120016495Y73542447D01*
X120016495Y73542447D02*
X119968876Y73447209D01*
X119968876Y73447209D02*
X119921257Y73399590D01*
X119921257Y73399590D02*
X119826019Y73351971D01*
X119826019Y73351971D02*
X119445067Y73351971D01*
X120445067Y72875780D02*
X120445067Y73875780D01*
X120445067Y73875780D02*
X120683162Y73875780D01*
X120683162Y73875780D02*
X120826019Y73828161D01*
X120826019Y73828161D02*
X120921257Y73732923D01*
X120921257Y73732923D02*
X120968876Y73637685D01*
X120968876Y73637685D02*
X121016495Y73447209D01*
X121016495Y73447209D02*
X121016495Y73304352D01*
X121016495Y73304352D02*
X120968876Y73113876D01*
X120968876Y73113876D02*
X120921257Y73018638D01*
X120921257Y73018638D02*
X120826019Y72923400D01*
X120826019Y72923400D02*
X120683162Y72875780D01*
X120683162Y72875780D02*
X120445067Y72875780D01*
X94712018Y101476180D02*
X94378685Y101952371D01*
X94140590Y101476180D02*
X94140590Y102476180D01*
X94140590Y102476180D02*
X94521542Y102476180D01*
X94521542Y102476180D02*
X94616780Y102428561D01*
X94616780Y102428561D02*
X94664399Y102380942D01*
X94664399Y102380942D02*
X94712018Y102285704D01*
X94712018Y102285704D02*
X94712018Y102142847D01*
X94712018Y102142847D02*
X94664399Y102047609D01*
X94664399Y102047609D02*
X94616780Y101999990D01*
X94616780Y101999990D02*
X94521542Y101952371D01*
X94521542Y101952371D02*
X94140590Y101952371D01*
X95140590Y101999990D02*
X95473923Y101999990D01*
X95616780Y101476180D02*
X95140590Y101476180D01*
X95140590Y101476180D02*
X95140590Y102476180D01*
X95140590Y102476180D02*
X95616780Y102476180D01*
X95997733Y101523800D02*
X96140590Y101476180D01*
X96140590Y101476180D02*
X96378685Y101476180D01*
X96378685Y101476180D02*
X96473923Y101523800D01*
X96473923Y101523800D02*
X96521542Y101571419D01*
X96521542Y101571419D02*
X96569161Y101666657D01*
X96569161Y101666657D02*
X96569161Y101761895D01*
X96569161Y101761895D02*
X96521542Y101857133D01*
X96521542Y101857133D02*
X96473923Y101904752D01*
X96473923Y101904752D02*
X96378685Y101952371D01*
X96378685Y101952371D02*
X96188209Y101999990D01*
X96188209Y101999990D02*
X96092971Y102047609D01*
X96092971Y102047609D02*
X96045352Y102095228D01*
X96045352Y102095228D02*
X95997733Y102190466D01*
X95997733Y102190466D02*
X95997733Y102285704D01*
X95997733Y102285704D02*
X96045352Y102380942D01*
X96045352Y102380942D02*
X96092971Y102428561D01*
X96092971Y102428561D02*
X96188209Y102476180D01*
X96188209Y102476180D02*
X96426304Y102476180D01*
X96426304Y102476180D02*
X96569161Y102428561D01*
X96997733Y101999990D02*
X97331066Y101999990D01*
X97473923Y101476180D02*
X96997733Y101476180D01*
X96997733Y101476180D02*
X96997733Y102476180D01*
X96997733Y102476180D02*
X97473923Y102476180D01*
X97759638Y102476180D02*
X98331066Y102476180D01*
X98045352Y101476180D02*
X98045352Y102476180D01*
D12*
X65130149Y81046400D02*
X65301578Y80989257D01*
X65301578Y80989257D02*
X65587292Y80989257D01*
X65587292Y80989257D02*
X65701578Y81046400D01*
X65701578Y81046400D02*
X65758720Y81103542D01*
X65758720Y81103542D02*
X65815863Y81217828D01*
X65815863Y81217828D02*
X65815863Y81332114D01*
X65815863Y81332114D02*
X65758720Y81446400D01*
X65758720Y81446400D02*
X65701578Y81503542D01*
X65701578Y81503542D02*
X65587292Y81560685D01*
X65587292Y81560685D02*
X65358720Y81617828D01*
X65358720Y81617828D02*
X65244435Y81674971D01*
X65244435Y81674971D02*
X65187292Y81732114D01*
X65187292Y81732114D02*
X65130149Y81846400D01*
X65130149Y81846400D02*
X65130149Y81960685D01*
X65130149Y81960685D02*
X65187292Y82074971D01*
X65187292Y82074971D02*
X65244435Y82132114D01*
X65244435Y82132114D02*
X65358720Y82189257D01*
X65358720Y82189257D02*
X65644435Y82189257D01*
X65644435Y82189257D02*
X65815863Y82132114D01*
X66215863Y82189257D02*
X66501577Y80989257D01*
X66501577Y80989257D02*
X66730149Y81846400D01*
X66730149Y81846400D02*
X66958720Y80989257D01*
X66958720Y80989257D02*
X67244435Y82189257D01*
X67587292Y82189257D02*
X68330149Y82189257D01*
X68330149Y82189257D02*
X67930149Y81732114D01*
X67930149Y81732114D02*
X68101578Y81732114D01*
X68101578Y81732114D02*
X68215864Y81674971D01*
X68215864Y81674971D02*
X68273006Y81617828D01*
X68273006Y81617828D02*
X68330149Y81503542D01*
X68330149Y81503542D02*
X68330149Y81217828D01*
X68330149Y81217828D02*
X68273006Y81103542D01*
X68273006Y81103542D02*
X68215864Y81046400D01*
X68215864Y81046400D02*
X68101578Y80989257D01*
X68101578Y80989257D02*
X67758721Y80989257D01*
X67758721Y80989257D02*
X67644435Y81046400D01*
X67644435Y81046400D02*
X67587292Y81103542D01*
D11*
X71056667Y81242180D02*
X71056667Y82242180D01*
X71056667Y82242180D02*
X71294762Y82242180D01*
X71294762Y82242180D02*
X71437619Y82194561D01*
X71437619Y82194561D02*
X71532857Y82099323D01*
X71532857Y82099323D02*
X71580476Y82004085D01*
X71580476Y82004085D02*
X71628095Y81813609D01*
X71628095Y81813609D02*
X71628095Y81670752D01*
X71628095Y81670752D02*
X71580476Y81480276D01*
X71580476Y81480276D02*
X71532857Y81385038D01*
X71532857Y81385038D02*
X71437619Y81289800D01*
X71437619Y81289800D02*
X71294762Y81242180D01*
X71294762Y81242180D02*
X71056667Y81242180D01*
X72056667Y81242180D02*
X72056667Y82242180D01*
X72485238Y81527895D02*
X72961428Y81527895D01*
X72390000Y81242180D02*
X72723333Y82242180D01*
X72723333Y82242180D02*
X73056666Y81242180D01*
X73866190Y81242180D02*
X73390000Y81242180D01*
X73390000Y81242180D02*
X73390000Y82242180D01*
X69890000Y79679800D02*
X70032857Y79632180D01*
X70032857Y79632180D02*
X70270952Y79632180D01*
X70270952Y79632180D02*
X70366190Y79679800D01*
X70366190Y79679800D02*
X70413809Y79727419D01*
X70413809Y79727419D02*
X70461428Y79822657D01*
X70461428Y79822657D02*
X70461428Y79917895D01*
X70461428Y79917895D02*
X70413809Y80013133D01*
X70413809Y80013133D02*
X70366190Y80060752D01*
X70366190Y80060752D02*
X70270952Y80108371D01*
X70270952Y80108371D02*
X70080476Y80155990D01*
X70080476Y80155990D02*
X69985238Y80203609D01*
X69985238Y80203609D02*
X69937619Y80251228D01*
X69937619Y80251228D02*
X69890000Y80346466D01*
X69890000Y80346466D02*
X69890000Y80441704D01*
X69890000Y80441704D02*
X69937619Y80536942D01*
X69937619Y80536942D02*
X69985238Y80584561D01*
X69985238Y80584561D02*
X70080476Y80632180D01*
X70080476Y80632180D02*
X70318571Y80632180D01*
X70318571Y80632180D02*
X70461428Y80584561D01*
X70794762Y80632180D02*
X71032857Y79632180D01*
X71032857Y79632180D02*
X71223333Y80346466D01*
X71223333Y80346466D02*
X71413809Y79632180D01*
X71413809Y79632180D02*
X71651905Y80632180D01*
X72032857Y79632180D02*
X72032857Y80632180D01*
X72366190Y80632180D02*
X72937618Y80632180D01*
X72651904Y79632180D02*
X72651904Y80632180D01*
X73842380Y79727419D02*
X73794761Y79679800D01*
X73794761Y79679800D02*
X73651904Y79632180D01*
X73651904Y79632180D02*
X73556666Y79632180D01*
X73556666Y79632180D02*
X73413809Y79679800D01*
X73413809Y79679800D02*
X73318571Y79775038D01*
X73318571Y79775038D02*
X73270952Y79870276D01*
X73270952Y79870276D02*
X73223333Y80060752D01*
X73223333Y80060752D02*
X73223333Y80203609D01*
X73223333Y80203609D02*
X73270952Y80394085D01*
X73270952Y80394085D02*
X73318571Y80489323D01*
X73318571Y80489323D02*
X73413809Y80584561D01*
X73413809Y80584561D02*
X73556666Y80632180D01*
X73556666Y80632180D02*
X73651904Y80632180D01*
X73651904Y80632180D02*
X73794761Y80584561D01*
X73794761Y80584561D02*
X73842380Y80536942D01*
X74270952Y79632180D02*
X74270952Y80632180D01*
X74270952Y80155990D02*
X74842380Y80155990D01*
X74842380Y79632180D02*
X74842380Y80632180D01*
X121670962Y95288380D02*
X121670962Y96288380D01*
X121670962Y95812190D02*
X122242390Y95812190D01*
X122242390Y95288380D02*
X122242390Y96288380D01*
X122718581Y95288380D02*
X122718581Y96288380D01*
X122718581Y96288380D02*
X122956676Y96288380D01*
X122956676Y96288380D02*
X123099533Y96240761D01*
X123099533Y96240761D02*
X123194771Y96145523D01*
X123194771Y96145523D02*
X123242390Y96050285D01*
X123242390Y96050285D02*
X123290009Y95859809D01*
X123290009Y95859809D02*
X123290009Y95716952D01*
X123290009Y95716952D02*
X123242390Y95526476D01*
X123242390Y95526476D02*
X123194771Y95431238D01*
X123194771Y95431238D02*
X123099533Y95336000D01*
X123099533Y95336000D02*
X122956676Y95288380D01*
X122956676Y95288380D02*
X122718581Y95288380D01*
X123718581Y95288380D02*
X123718581Y96288380D01*
X123718581Y96288380D02*
X124051914Y95574095D01*
X124051914Y95574095D02*
X124385247Y96288380D01*
X124385247Y96288380D02*
X124385247Y95288380D01*
X124861438Y95288380D02*
X124861438Y96288380D01*
X122266200Y94678380D02*
X122456676Y94678380D01*
X122456676Y94678380D02*
X122551914Y94630761D01*
X122551914Y94630761D02*
X122647152Y94535523D01*
X122647152Y94535523D02*
X122694771Y94345047D01*
X122694771Y94345047D02*
X122694771Y94011714D01*
X122694771Y94011714D02*
X122647152Y93821238D01*
X122647152Y93821238D02*
X122551914Y93726000D01*
X122551914Y93726000D02*
X122456676Y93678380D01*
X122456676Y93678380D02*
X122266200Y93678380D01*
X122266200Y93678380D02*
X122170962Y93726000D01*
X122170962Y93726000D02*
X122075724Y93821238D01*
X122075724Y93821238D02*
X122028105Y94011714D01*
X122028105Y94011714D02*
X122028105Y94345047D01*
X122028105Y94345047D02*
X122075724Y94535523D01*
X122075724Y94535523D02*
X122170962Y94630761D01*
X122170962Y94630761D02*
X122266200Y94678380D01*
X123123343Y94678380D02*
X123123343Y93868857D01*
X123123343Y93868857D02*
X123170962Y93773619D01*
X123170962Y93773619D02*
X123218581Y93726000D01*
X123218581Y93726000D02*
X123313819Y93678380D01*
X123313819Y93678380D02*
X123504295Y93678380D01*
X123504295Y93678380D02*
X123599533Y93726000D01*
X123599533Y93726000D02*
X123647152Y93773619D01*
X123647152Y93773619D02*
X123694771Y93868857D01*
X123694771Y93868857D02*
X123694771Y94678380D01*
X124028105Y94678380D02*
X124599533Y94678380D01*
X124313819Y93678380D02*
X124313819Y94678380D01*
D12*
X65130149Y98064400D02*
X65301578Y98007257D01*
X65301578Y98007257D02*
X65587292Y98007257D01*
X65587292Y98007257D02*
X65701578Y98064400D01*
X65701578Y98064400D02*
X65758720Y98121542D01*
X65758720Y98121542D02*
X65815863Y98235828D01*
X65815863Y98235828D02*
X65815863Y98350114D01*
X65815863Y98350114D02*
X65758720Y98464400D01*
X65758720Y98464400D02*
X65701578Y98521542D01*
X65701578Y98521542D02*
X65587292Y98578685D01*
X65587292Y98578685D02*
X65358720Y98635828D01*
X65358720Y98635828D02*
X65244435Y98692971D01*
X65244435Y98692971D02*
X65187292Y98750114D01*
X65187292Y98750114D02*
X65130149Y98864400D01*
X65130149Y98864400D02*
X65130149Y98978685D01*
X65130149Y98978685D02*
X65187292Y99092971D01*
X65187292Y99092971D02*
X65244435Y99150114D01*
X65244435Y99150114D02*
X65358720Y99207257D01*
X65358720Y99207257D02*
X65644435Y99207257D01*
X65644435Y99207257D02*
X65815863Y99150114D01*
X66215863Y99207257D02*
X66501577Y98007257D01*
X66501577Y98007257D02*
X66730149Y98864400D01*
X66730149Y98864400D02*
X66958720Y98007257D01*
X66958720Y98007257D02*
X67244435Y99207257D01*
X68330149Y98007257D02*
X67644435Y98007257D01*
X67987292Y98007257D02*
X67987292Y99207257D01*
X67987292Y99207257D02*
X67873006Y99035828D01*
X67873006Y99035828D02*
X67758721Y98921542D01*
X67758721Y98921542D02*
X67644435Y98864400D01*
D10*
X76046655Y104999233D02*
X76046655Y104532566D01*
X75879989Y105265900D02*
X75713322Y104765900D01*
X75713322Y104765900D02*
X76146655Y104765900D01*
X76546656Y105232566D02*
X76613322Y105232566D01*
X76613322Y105232566D02*
X76679989Y105199233D01*
X76679989Y105199233D02*
X76713322Y105165900D01*
X76713322Y105165900D02*
X76746656Y105099233D01*
X76746656Y105099233D02*
X76779989Y104965900D01*
X76779989Y104965900D02*
X76779989Y104799233D01*
X76779989Y104799233D02*
X76746656Y104665900D01*
X76746656Y104665900D02*
X76713322Y104599233D01*
X76713322Y104599233D02*
X76679989Y104565900D01*
X76679989Y104565900D02*
X76613322Y104532566D01*
X76613322Y104532566D02*
X76546656Y104532566D01*
X76546656Y104532566D02*
X76479989Y104565900D01*
X76479989Y104565900D02*
X76446656Y104599233D01*
X76446656Y104599233D02*
X76413322Y104665900D01*
X76413322Y104665900D02*
X76379989Y104799233D01*
X76379989Y104799233D02*
X76379989Y104965900D01*
X76379989Y104965900D02*
X76413322Y105099233D01*
X76413322Y105099233D02*
X76446656Y105165900D01*
X76446656Y105165900D02*
X76479989Y105199233D01*
X76479989Y105199233D02*
X76546656Y105232566D01*
X85937734Y100070866D02*
X85871068Y100104200D01*
X85871068Y100104200D02*
X85837734Y100137533D01*
X85837734Y100137533D02*
X85804401Y100204200D01*
X85804401Y100204200D02*
X85804401Y100237533D01*
X85804401Y100237533D02*
X85837734Y100304200D01*
X85837734Y100304200D02*
X85871068Y100337533D01*
X85871068Y100337533D02*
X85937734Y100370866D01*
X85937734Y100370866D02*
X86071068Y100370866D01*
X86071068Y100370866D02*
X86137734Y100337533D01*
X86137734Y100337533D02*
X86171068Y100304200D01*
X86171068Y100304200D02*
X86204401Y100237533D01*
X86204401Y100237533D02*
X86204401Y100204200D01*
X86204401Y100204200D02*
X86171068Y100137533D01*
X86171068Y100137533D02*
X86137734Y100104200D01*
X86137734Y100104200D02*
X86071068Y100070866D01*
X86071068Y100070866D02*
X85937734Y100070866D01*
X85937734Y100070866D02*
X85871068Y100037533D01*
X85871068Y100037533D02*
X85837734Y100004200D01*
X85837734Y100004200D02*
X85804401Y99937533D01*
X85804401Y99937533D02*
X85804401Y99804200D01*
X85804401Y99804200D02*
X85837734Y99737533D01*
X85837734Y99737533D02*
X85871068Y99704200D01*
X85871068Y99704200D02*
X85937734Y99670866D01*
X85937734Y99670866D02*
X86071068Y99670866D01*
X86071068Y99670866D02*
X86137734Y99704200D01*
X86137734Y99704200D02*
X86171068Y99737533D01*
X86171068Y99737533D02*
X86204401Y99804200D01*
X86204401Y99804200D02*
X86204401Y99937533D01*
X86204401Y99937533D02*
X86171068Y100004200D01*
X86171068Y100004200D02*
X86137734Y100037533D01*
X86137734Y100037533D02*
X86071068Y100070866D01*
D11*
X130943505Y63410980D02*
X131562552Y63410980D01*
X131562552Y63410980D02*
X131229219Y63030028D01*
X131229219Y63030028D02*
X131372076Y63030028D01*
X131372076Y63030028D02*
X131467314Y62982409D01*
X131467314Y62982409D02*
X131514933Y62934790D01*
X131514933Y62934790D02*
X131562552Y62839552D01*
X131562552Y62839552D02*
X131562552Y62601457D01*
X131562552Y62601457D02*
X131514933Y62506219D01*
X131514933Y62506219D02*
X131467314Y62458600D01*
X131467314Y62458600D02*
X131372076Y62410980D01*
X131372076Y62410980D02*
X131086362Y62410980D01*
X131086362Y62410980D02*
X130991124Y62458600D01*
X130991124Y62458600D02*
X130943505Y62506219D01*
X131848267Y63410980D02*
X132181600Y62410980D01*
X132181600Y62410980D02*
X132514933Y63410980D01*
X132753029Y63410980D02*
X133372076Y63410980D01*
X133372076Y63410980D02*
X133038743Y63030028D01*
X133038743Y63030028D02*
X133181600Y63030028D01*
X133181600Y63030028D02*
X133276838Y62982409D01*
X133276838Y62982409D02*
X133324457Y62934790D01*
X133324457Y62934790D02*
X133372076Y62839552D01*
X133372076Y62839552D02*
X133372076Y62601457D01*
X133372076Y62601457D02*
X133324457Y62506219D01*
X133324457Y62506219D02*
X133276838Y62458600D01*
X133276838Y62458600D02*
X133181600Y62410980D01*
X133181600Y62410980D02*
X132895886Y62410980D01*
X132895886Y62410980D02*
X132800648Y62458600D01*
X132800648Y62458600D02*
X132753029Y62506219D01*
X65265541Y85204180D02*
X65884588Y85204180D01*
X65884588Y85204180D02*
X65551255Y84823228D01*
X65551255Y84823228D02*
X65694112Y84823228D01*
X65694112Y84823228D02*
X65789350Y84775609D01*
X65789350Y84775609D02*
X65836969Y84727990D01*
X65836969Y84727990D02*
X65884588Y84632752D01*
X65884588Y84632752D02*
X65884588Y84394657D01*
X65884588Y84394657D02*
X65836969Y84299419D01*
X65836969Y84299419D02*
X65789350Y84251800D01*
X65789350Y84251800D02*
X65694112Y84204180D01*
X65694112Y84204180D02*
X65408398Y84204180D01*
X65408398Y84204180D02*
X65313160Y84251800D01*
X65313160Y84251800D02*
X65265541Y84299419D01*
D10*
X84145468Y100380866D02*
X84612134Y100380866D01*
X84612134Y100380866D02*
X84312134Y99680866D01*
X82886534Y100383865D02*
X82753201Y100383865D01*
X82753201Y100383865D02*
X82686534Y100350532D01*
X82686534Y100350532D02*
X82653201Y100317199D01*
X82653201Y100317199D02*
X82586534Y100217199D01*
X82586534Y100217199D02*
X82553201Y100083865D01*
X82553201Y100083865D02*
X82553201Y99817199D01*
X82553201Y99817199D02*
X82586534Y99750532D01*
X82586534Y99750532D02*
X82619868Y99717199D01*
X82619868Y99717199D02*
X82686534Y99683865D01*
X82686534Y99683865D02*
X82819868Y99683865D01*
X82819868Y99683865D02*
X82886534Y99717199D01*
X82886534Y99717199D02*
X82919868Y99750532D01*
X82919868Y99750532D02*
X82953201Y99817199D01*
X82953201Y99817199D02*
X82953201Y99983865D01*
X82953201Y99983865D02*
X82919868Y100050532D01*
X82919868Y100050532D02*
X82886534Y100083865D01*
X82886534Y100083865D02*
X82819868Y100117199D01*
X82819868Y100117199D02*
X82686534Y100117199D01*
X82686534Y100117199D02*
X82619868Y100083865D01*
X82619868Y100083865D02*
X82586534Y100050532D01*
X82586534Y100050532D02*
X82553201Y99983865D01*
D13*
X106369730Y101406757D02*
X106369730Y100692471D01*
X105869730Y102192471D02*
X106369730Y101406757D01*
X106369730Y101406757D02*
X106869730Y102192471D01*
X107298301Y101121042D02*
X108012587Y101121042D01*
X107155444Y100692471D02*
X107655444Y102192471D01*
X107655444Y102192471D02*
X108155444Y100692471D01*
X108584015Y100763900D02*
X108798301Y100692471D01*
X108798301Y100692471D02*
X109155443Y100692471D01*
X109155443Y100692471D02*
X109298301Y100763900D01*
X109298301Y100763900D02*
X109369729Y100835328D01*
X109369729Y100835328D02*
X109441158Y100978185D01*
X109441158Y100978185D02*
X109441158Y101121042D01*
X109441158Y101121042D02*
X109369729Y101263900D01*
X109369729Y101263900D02*
X109298301Y101335328D01*
X109298301Y101335328D02*
X109155443Y101406757D01*
X109155443Y101406757D02*
X108869729Y101478185D01*
X108869729Y101478185D02*
X108726872Y101549614D01*
X108726872Y101549614D02*
X108655443Y101621042D01*
X108655443Y101621042D02*
X108584015Y101763900D01*
X108584015Y101763900D02*
X108584015Y101906757D01*
X108584015Y101906757D02*
X108655443Y102049614D01*
X108655443Y102049614D02*
X108726872Y102121042D01*
X108726872Y102121042D02*
X108869729Y102192471D01*
X108869729Y102192471D02*
X109226872Y102192471D01*
X109226872Y102192471D02*
X109441158Y102121042D01*
X110584014Y101478185D02*
X110798300Y101406757D01*
X110798300Y101406757D02*
X110869729Y101335328D01*
X110869729Y101335328D02*
X110941157Y101192471D01*
X110941157Y101192471D02*
X110941157Y100978185D01*
X110941157Y100978185D02*
X110869729Y100835328D01*
X110869729Y100835328D02*
X110798300Y100763900D01*
X110798300Y100763900D02*
X110655443Y100692471D01*
X110655443Y100692471D02*
X110084014Y100692471D01*
X110084014Y100692471D02*
X110084014Y102192471D01*
X110084014Y102192471D02*
X110584014Y102192471D01*
X110584014Y102192471D02*
X110726872Y102121042D01*
X110726872Y102121042D02*
X110798300Y102049614D01*
X110798300Y102049614D02*
X110869729Y101906757D01*
X110869729Y101906757D02*
X110869729Y101763900D01*
X110869729Y101763900D02*
X110798300Y101621042D01*
X110798300Y101621042D02*
X110726872Y101549614D01*
X110726872Y101549614D02*
X110584014Y101478185D01*
X110584014Y101478185D02*
X110084014Y101478185D01*
X112441157Y100835328D02*
X112369729Y100763900D01*
X112369729Y100763900D02*
X112155443Y100692471D01*
X112155443Y100692471D02*
X112012586Y100692471D01*
X112012586Y100692471D02*
X111798300Y100763900D01*
X111798300Y100763900D02*
X111655443Y100906757D01*
X111655443Y100906757D02*
X111584014Y101049614D01*
X111584014Y101049614D02*
X111512586Y101335328D01*
X111512586Y101335328D02*
X111512586Y101549614D01*
X111512586Y101549614D02*
X111584014Y101835328D01*
X111584014Y101835328D02*
X111655443Y101978185D01*
X111655443Y101978185D02*
X111798300Y102121042D01*
X111798300Y102121042D02*
X112012586Y102192471D01*
X112012586Y102192471D02*
X112155443Y102192471D01*
X112155443Y102192471D02*
X112369729Y102121042D01*
X112369729Y102121042D02*
X112441157Y102049614D01*
X114012586Y102192471D02*
X114512586Y100692471D01*
X114512586Y100692471D02*
X115012586Y102192471D01*
X115798300Y102192471D02*
X115941157Y102192471D01*
X115941157Y102192471D02*
X116084014Y102121042D01*
X116084014Y102121042D02*
X116155443Y102049614D01*
X116155443Y102049614D02*
X116226871Y101906757D01*
X116226871Y101906757D02*
X116298300Y101621042D01*
X116298300Y101621042D02*
X116298300Y101263900D01*
X116298300Y101263900D02*
X116226871Y100978185D01*
X116226871Y100978185D02*
X116155443Y100835328D01*
X116155443Y100835328D02*
X116084014Y100763900D01*
X116084014Y100763900D02*
X115941157Y100692471D01*
X115941157Y100692471D02*
X115798300Y100692471D01*
X115798300Y100692471D02*
X115655443Y100763900D01*
X115655443Y100763900D02*
X115584014Y100835328D01*
X115584014Y100835328D02*
X115512585Y100978185D01*
X115512585Y100978185D02*
X115441157Y101263900D01*
X115441157Y101263900D02*
X115441157Y101621042D01*
X115441157Y101621042D02*
X115512585Y101906757D01*
X115512585Y101906757D02*
X115584014Y102049614D01*
X115584014Y102049614D02*
X115655443Y102121042D01*
X115655443Y102121042D02*
X115798300Y102192471D01*
X116941156Y100835328D02*
X117012585Y100763900D01*
X117012585Y100763900D02*
X116941156Y100692471D01*
X116941156Y100692471D02*
X116869728Y100763900D01*
X116869728Y100763900D02*
X116941156Y100835328D01*
X116941156Y100835328D02*
X116941156Y100692471D01*
X118441157Y100692471D02*
X117584014Y100692471D01*
X118012585Y100692471D02*
X118012585Y102192471D01*
X118012585Y102192471D02*
X117869728Y101978185D01*
X117869728Y101978185D02*
X117726871Y101835328D01*
X117726871Y101835328D02*
X117584014Y101763900D01*
X106084015Y98848900D02*
X107226873Y98848900D01*
X109084015Y99063185D02*
X109584015Y99063185D01*
X109798301Y98277471D02*
X109084015Y98277471D01*
X109084015Y98277471D02*
X109084015Y99777471D01*
X109084015Y99777471D02*
X109798301Y99777471D01*
X110298301Y99777471D02*
X111298301Y98277471D01*
X111298301Y99777471D02*
X110298301Y98277471D01*
X112726872Y98420328D02*
X112655444Y98348900D01*
X112655444Y98348900D02*
X112441158Y98277471D01*
X112441158Y98277471D02*
X112298301Y98277471D01*
X112298301Y98277471D02*
X112084015Y98348900D01*
X112084015Y98348900D02*
X111941158Y98491757D01*
X111941158Y98491757D02*
X111869729Y98634614D01*
X111869729Y98634614D02*
X111798301Y98920328D01*
X111798301Y98920328D02*
X111798301Y99134614D01*
X111798301Y99134614D02*
X111869729Y99420328D01*
X111869729Y99420328D02*
X111941158Y99563185D01*
X111941158Y99563185D02*
X112084015Y99706042D01*
X112084015Y99706042D02*
X112298301Y99777471D01*
X112298301Y99777471D02*
X112441158Y99777471D01*
X112441158Y99777471D02*
X112655444Y99706042D01*
X112655444Y99706042D02*
X112726872Y99634614D01*
X113298301Y98348900D02*
X113512587Y98277471D01*
X113512587Y98277471D02*
X113869729Y98277471D01*
X113869729Y98277471D02*
X114012587Y98348900D01*
X114012587Y98348900D02*
X114084015Y98420328D01*
X114084015Y98420328D02*
X114155444Y98563185D01*
X114155444Y98563185D02*
X114155444Y98706042D01*
X114155444Y98706042D02*
X114084015Y98848900D01*
X114084015Y98848900D02*
X114012587Y98920328D01*
X114012587Y98920328D02*
X113869729Y98991757D01*
X113869729Y98991757D02*
X113584015Y99063185D01*
X113584015Y99063185D02*
X113441158Y99134614D01*
X113441158Y99134614D02*
X113369729Y99206042D01*
X113369729Y99206042D02*
X113298301Y99348900D01*
X113298301Y99348900D02*
X113298301Y99491757D01*
X113298301Y99491757D02*
X113369729Y99634614D01*
X113369729Y99634614D02*
X113441158Y99706042D01*
X113441158Y99706042D02*
X113584015Y99777471D01*
X113584015Y99777471D02*
X113941158Y99777471D01*
X113941158Y99777471D02*
X114155444Y99706042D01*
X114798300Y98277471D02*
X114798300Y99777471D01*
X114798300Y99777471D02*
X115655443Y98277471D01*
X115655443Y98277471D02*
X115655443Y99777471D01*
X116369729Y98277471D02*
X116369729Y99777471D01*
X117084015Y98277471D02*
X117084015Y99777471D01*
X117084015Y99777471D02*
X117655444Y99777471D01*
X117655444Y99777471D02*
X117798301Y99706042D01*
X117798301Y99706042D02*
X117869730Y99634614D01*
X117869730Y99634614D02*
X117941158Y99491757D01*
X117941158Y99491757D02*
X117941158Y99277471D01*
X117941158Y99277471D02*
X117869730Y99134614D01*
X117869730Y99134614D02*
X117798301Y99063185D01*
X117798301Y99063185D02*
X117655444Y98991757D01*
X117655444Y98991757D02*
X117084015Y98991757D01*
X118584015Y99063185D02*
X119084015Y99063185D01*
X119298301Y98277471D02*
X118584015Y98277471D01*
X118584015Y98277471D02*
X118584015Y99777471D01*
X118584015Y99777471D02*
X119298301Y99777471D01*
X120798301Y98277471D02*
X120298301Y98991757D01*
X119941158Y98277471D02*
X119941158Y99777471D01*
X119941158Y99777471D02*
X120512587Y99777471D01*
X120512587Y99777471D02*
X120655444Y99706042D01*
X120655444Y99706042D02*
X120726873Y99634614D01*
X120726873Y99634614D02*
X120798301Y99491757D01*
X120798301Y99491757D02*
X120798301Y99277471D01*
X120798301Y99277471D02*
X120726873Y99134614D01*
X120726873Y99134614D02*
X120655444Y99063185D01*
X120655444Y99063185D02*
X120512587Y98991757D01*
X120512587Y98991757D02*
X119941158Y98991757D01*
X106084015Y96433900D02*
X107226873Y96433900D01*
X108941158Y97362471D02*
X109941158Y97362471D01*
X109941158Y97362471D02*
X108941158Y95862471D01*
X108941158Y95862471D02*
X109941158Y95862471D01*
X110512586Y95862471D02*
X110512586Y97362471D01*
X112012587Y97291042D02*
X111869730Y97362471D01*
X111869730Y97362471D02*
X111655444Y97362471D01*
X111655444Y97362471D02*
X111441158Y97291042D01*
X111441158Y97291042D02*
X111298301Y97148185D01*
X111298301Y97148185D02*
X111226872Y97005328D01*
X111226872Y97005328D02*
X111155444Y96719614D01*
X111155444Y96719614D02*
X111155444Y96505328D01*
X111155444Y96505328D02*
X111226872Y96219614D01*
X111226872Y96219614D02*
X111298301Y96076757D01*
X111298301Y96076757D02*
X111441158Y95933900D01*
X111441158Y95933900D02*
X111655444Y95862471D01*
X111655444Y95862471D02*
X111798301Y95862471D01*
X111798301Y95862471D02*
X112012587Y95933900D01*
X112012587Y95933900D02*
X112084015Y96005328D01*
X112084015Y96005328D02*
X112084015Y96505328D01*
X112084015Y96505328D02*
X111798301Y96505328D01*
X113012587Y97362471D02*
X113298301Y97362471D01*
X113298301Y97362471D02*
X113441158Y97291042D01*
X113441158Y97291042D02*
X113584015Y97148185D01*
X113584015Y97148185D02*
X113655444Y96862471D01*
X113655444Y96862471D02*
X113655444Y96362471D01*
X113655444Y96362471D02*
X113584015Y96076757D01*
X113584015Y96076757D02*
X113441158Y95933900D01*
X113441158Y95933900D02*
X113298301Y95862471D01*
X113298301Y95862471D02*
X113012587Y95862471D01*
X113012587Y95862471D02*
X112869730Y95933900D01*
X112869730Y95933900D02*
X112726872Y96076757D01*
X112726872Y96076757D02*
X112655444Y96362471D01*
X112655444Y96362471D02*
X112655444Y96862471D01*
X112655444Y96862471D02*
X112726872Y97148185D01*
X112726872Y97148185D02*
X112869730Y97291042D01*
X112869730Y97291042D02*
X113012587Y97362471D01*
X114298301Y95862471D02*
X114298301Y97362471D01*
X114298301Y97362471D02*
X115155444Y95862471D01*
X115155444Y95862471D02*
X115155444Y97362471D01*
D10*
X79635334Y100147534D02*
X79635334Y99680867D01*
X79468668Y100414201D02*
X79302001Y99914201D01*
X79302001Y99914201D02*
X79735334Y99914201D01*
D12*
X96429292Y65892400D02*
X97343578Y65892400D01*
X96886435Y65435257D02*
X96886435Y66349542D01*
X117003292Y77322400D02*
X117917578Y77322400D01*
X117460435Y76865257D02*
X117460435Y77779542D01*
D11*
X83172493Y76491980D02*
X83172493Y75777695D01*
X83172493Y75777695D02*
X83124874Y75634838D01*
X83124874Y75634838D02*
X83029636Y75539600D01*
X83029636Y75539600D02*
X82886779Y75491980D01*
X82886779Y75491980D02*
X82791541Y75491980D01*
X84124874Y75491980D02*
X83648684Y75491980D01*
X83648684Y75491980D02*
X83648684Y76491980D01*
X85029636Y75587219D02*
X84982017Y75539600D01*
X84982017Y75539600D02*
X84839160Y75491980D01*
X84839160Y75491980D02*
X84743922Y75491980D01*
X84743922Y75491980D02*
X84601065Y75539600D01*
X84601065Y75539600D02*
X84505827Y75634838D01*
X84505827Y75634838D02*
X84458208Y75730076D01*
X84458208Y75730076D02*
X84410589Y75920552D01*
X84410589Y75920552D02*
X84410589Y76063409D01*
X84410589Y76063409D02*
X84458208Y76253885D01*
X84458208Y76253885D02*
X84505827Y76349123D01*
X84505827Y76349123D02*
X84601065Y76444361D01*
X84601065Y76444361D02*
X84743922Y76491980D01*
X84743922Y76491980D02*
X84839160Y76491980D01*
X84839160Y76491980D02*
X84982017Y76444361D01*
X84982017Y76444361D02*
X85029636Y76396742D01*
X85743922Y76491980D02*
X85743922Y75777695D01*
X85743922Y75777695D02*
X85696303Y75634838D01*
X85696303Y75634838D02*
X85601065Y75539600D01*
X85601065Y75539600D02*
X85458208Y75491980D01*
X85458208Y75491980D02*
X85362970Y75491980D01*
X86696303Y75491980D02*
X86220113Y75491980D01*
X86220113Y75491980D02*
X86220113Y76491980D01*
X87601065Y75587219D02*
X87553446Y75539600D01*
X87553446Y75539600D02*
X87410589Y75491980D01*
X87410589Y75491980D02*
X87315351Y75491980D01*
X87315351Y75491980D02*
X87172494Y75539600D01*
X87172494Y75539600D02*
X87077256Y75634838D01*
X87077256Y75634838D02*
X87029637Y75730076D01*
X87029637Y75730076D02*
X86982018Y75920552D01*
X86982018Y75920552D02*
X86982018Y76063409D01*
X86982018Y76063409D02*
X87029637Y76253885D01*
X87029637Y76253885D02*
X87077256Y76349123D01*
X87077256Y76349123D02*
X87172494Y76444361D01*
X87172494Y76444361D02*
X87315351Y76491980D01*
X87315351Y76491980D02*
X87410589Y76491980D01*
X87410589Y76491980D02*
X87553446Y76444361D01*
X87553446Y76444361D02*
X87601065Y76396742D01*
X88315351Y76491980D02*
X88315351Y75777695D01*
X88315351Y75777695D02*
X88267732Y75634838D01*
X88267732Y75634838D02*
X88172494Y75539600D01*
X88172494Y75539600D02*
X88029637Y75491980D01*
X88029637Y75491980D02*
X87934399Y75491980D01*
X89267732Y75491980D02*
X88791542Y75491980D01*
X88791542Y75491980D02*
X88791542Y76491980D01*
X90172494Y75587219D02*
X90124875Y75539600D01*
X90124875Y75539600D02*
X89982018Y75491980D01*
X89982018Y75491980D02*
X89886780Y75491980D01*
X89886780Y75491980D02*
X89743923Y75539600D01*
X89743923Y75539600D02*
X89648685Y75634838D01*
X89648685Y75634838D02*
X89601066Y75730076D01*
X89601066Y75730076D02*
X89553447Y75920552D01*
X89553447Y75920552D02*
X89553447Y76063409D01*
X89553447Y76063409D02*
X89601066Y76253885D01*
X89601066Y76253885D02*
X89648685Y76349123D01*
X89648685Y76349123D02*
X89743923Y76444361D01*
X89743923Y76444361D02*
X89886780Y76491980D01*
X89886780Y76491980D02*
X89982018Y76491980D01*
X89982018Y76491980D02*
X90124875Y76444361D01*
X90124875Y76444361D02*
X90172494Y76396742D01*
X90886780Y76491980D02*
X90886780Y75777695D01*
X90886780Y75777695D02*
X90839161Y75634838D01*
X90839161Y75634838D02*
X90743923Y75539600D01*
X90743923Y75539600D02*
X90601066Y75491980D01*
X90601066Y75491980D02*
X90505828Y75491980D01*
X91839161Y75491980D02*
X91362971Y75491980D01*
X91362971Y75491980D02*
X91362971Y76491980D01*
X92743923Y75587219D02*
X92696304Y75539600D01*
X92696304Y75539600D02*
X92553447Y75491980D01*
X92553447Y75491980D02*
X92458209Y75491980D01*
X92458209Y75491980D02*
X92315352Y75539600D01*
X92315352Y75539600D02*
X92220114Y75634838D01*
X92220114Y75634838D02*
X92172495Y75730076D01*
X92172495Y75730076D02*
X92124876Y75920552D01*
X92124876Y75920552D02*
X92124876Y76063409D01*
X92124876Y76063409D02*
X92172495Y76253885D01*
X92172495Y76253885D02*
X92220114Y76349123D01*
X92220114Y76349123D02*
X92315352Y76444361D01*
X92315352Y76444361D02*
X92458209Y76491980D01*
X92458209Y76491980D02*
X92553447Y76491980D01*
X92553447Y76491980D02*
X92696304Y76444361D01*
X92696304Y76444361D02*
X92743923Y76396742D01*
D10*
X75705389Y107772566D02*
X76138722Y107772566D01*
X76138722Y107772566D02*
X75905389Y107505900D01*
X75905389Y107505900D02*
X76005389Y107505900D01*
X76005389Y107505900D02*
X76072055Y107472566D01*
X76072055Y107472566D02*
X76105389Y107439233D01*
X76105389Y107439233D02*
X76138722Y107372566D01*
X76138722Y107372566D02*
X76138722Y107205900D01*
X76138722Y107205900D02*
X76105389Y107139233D01*
X76105389Y107139233D02*
X76072055Y107105900D01*
X76072055Y107105900D02*
X76005389Y107072566D01*
X76005389Y107072566D02*
X75805389Y107072566D01*
X75805389Y107072566D02*
X75738722Y107105900D01*
X75738722Y107105900D02*
X75705389Y107139233D01*
X76472056Y107072566D02*
X76605389Y107072566D01*
X76605389Y107072566D02*
X76672056Y107105900D01*
X76672056Y107105900D02*
X76705389Y107139233D01*
X76705389Y107139233D02*
X76772056Y107239233D01*
X76772056Y107239233D02*
X76805389Y107372566D01*
X76805389Y107372566D02*
X76805389Y107639233D01*
X76805389Y107639233D02*
X76772056Y107705900D01*
X76772056Y107705900D02*
X76738722Y107739233D01*
X76738722Y107739233D02*
X76672056Y107772566D01*
X76672056Y107772566D02*
X76538722Y107772566D01*
X76538722Y107772566D02*
X76472056Y107739233D01*
X76472056Y107739233D02*
X76438722Y107705900D01*
X76438722Y107705900D02*
X76405389Y107639233D01*
X76405389Y107639233D02*
X76405389Y107472566D01*
X76405389Y107472566D02*
X76438722Y107405900D01*
X76438722Y107405900D02*
X76472056Y107372566D01*
X76472056Y107372566D02*
X76538722Y107339233D01*
X76538722Y107339233D02*
X76672056Y107339233D01*
X76672056Y107339233D02*
X76738722Y107372566D01*
X76738722Y107372566D02*
X76772056Y107405900D01*
X76772056Y107405900D02*
X76805389Y107472566D01*
X81294268Y100383867D02*
X80960934Y100383867D01*
X80960934Y100383867D02*
X80927601Y100050534D01*
X80927601Y100050534D02*
X80960934Y100083867D01*
X80960934Y100083867D02*
X81027601Y100117201D01*
X81027601Y100117201D02*
X81194268Y100117201D01*
X81194268Y100117201D02*
X81260934Y100083867D01*
X81260934Y100083867D02*
X81294268Y100050534D01*
X81294268Y100050534D02*
X81327601Y99983867D01*
X81327601Y99983867D02*
X81327601Y99817201D01*
X81327601Y99817201D02*
X81294268Y99750534D01*
X81294268Y99750534D02*
X81260934Y99717201D01*
X81260934Y99717201D02*
X81194268Y99683867D01*
X81194268Y99683867D02*
X81027601Y99683867D01*
X81027601Y99683867D02*
X80960934Y99717201D01*
X80960934Y99717201D02*
X80927601Y99750534D01*
X128680477Y107072566D02*
X128280477Y107072566D01*
X128480477Y107072566D02*
X128480477Y107772566D01*
X128480477Y107772566D02*
X128413810Y107672566D01*
X128413810Y107672566D02*
X128347144Y107605900D01*
X128347144Y107605900D02*
X128280477Y107572566D01*
D11*
X134864552Y66424180D02*
X134293124Y66424180D01*
X134578838Y66424180D02*
X134578838Y67424180D01*
X134578838Y67424180D02*
X134483600Y67281323D01*
X134483600Y67281323D02*
X134388362Y67186085D01*
X134388362Y67186085D02*
X134293124Y67138466D01*
X135150267Y67424180D02*
X135483600Y66424180D01*
X135483600Y66424180D02*
X135816933Y67424180D01*
X136102648Y67328942D02*
X136150267Y67376561D01*
X136150267Y67376561D02*
X136245505Y67424180D01*
X136245505Y67424180D02*
X136483600Y67424180D01*
X136483600Y67424180D02*
X136578838Y67376561D01*
X136578838Y67376561D02*
X136626457Y67328942D01*
X136626457Y67328942D02*
X136674076Y67233704D01*
X136674076Y67233704D02*
X136674076Y67138466D01*
X136674076Y67138466D02*
X136626457Y66995609D01*
X136626457Y66995609D02*
X136055029Y66424180D01*
X136055029Y66424180D02*
X136674076Y66424180D01*
X108059695Y64106580D02*
X108059695Y63297057D01*
X108059695Y63297057D02*
X108107314Y63201819D01*
X108107314Y63201819D02*
X108154933Y63154200D01*
X108154933Y63154200D02*
X108250171Y63106580D01*
X108250171Y63106580D02*
X108440647Y63106580D01*
X108440647Y63106580D02*
X108535885Y63154200D01*
X108535885Y63154200D02*
X108583504Y63201819D01*
X108583504Y63201819D02*
X108631123Y63297057D01*
X108631123Y63297057D02*
X108631123Y64106580D01*
X109059695Y63154200D02*
X109202552Y63106580D01*
X109202552Y63106580D02*
X109440647Y63106580D01*
X109440647Y63106580D02*
X109535885Y63154200D01*
X109535885Y63154200D02*
X109583504Y63201819D01*
X109583504Y63201819D02*
X109631123Y63297057D01*
X109631123Y63297057D02*
X109631123Y63392295D01*
X109631123Y63392295D02*
X109583504Y63487533D01*
X109583504Y63487533D02*
X109535885Y63535152D01*
X109535885Y63535152D02*
X109440647Y63582771D01*
X109440647Y63582771D02*
X109250171Y63630390D01*
X109250171Y63630390D02*
X109154933Y63678009D01*
X109154933Y63678009D02*
X109107314Y63725628D01*
X109107314Y63725628D02*
X109059695Y63820866D01*
X109059695Y63820866D02*
X109059695Y63916104D01*
X109059695Y63916104D02*
X109107314Y64011342D01*
X109107314Y64011342D02*
X109154933Y64058961D01*
X109154933Y64058961D02*
X109250171Y64106580D01*
X109250171Y64106580D02*
X109488266Y64106580D01*
X109488266Y64106580D02*
X109631123Y64058961D01*
X110393028Y63630390D02*
X110535885Y63582771D01*
X110535885Y63582771D02*
X110583504Y63535152D01*
X110583504Y63535152D02*
X110631123Y63439914D01*
X110631123Y63439914D02*
X110631123Y63297057D01*
X110631123Y63297057D02*
X110583504Y63201819D01*
X110583504Y63201819D02*
X110535885Y63154200D01*
X110535885Y63154200D02*
X110440647Y63106580D01*
X110440647Y63106580D02*
X110059695Y63106580D01*
X110059695Y63106580D02*
X110059695Y64106580D01*
X110059695Y64106580D02*
X110393028Y64106580D01*
X110393028Y64106580D02*
X110488266Y64058961D01*
X110488266Y64058961D02*
X110535885Y64011342D01*
X110535885Y64011342D02*
X110583504Y63916104D01*
X110583504Y63916104D02*
X110583504Y63820866D01*
X110583504Y63820866D02*
X110535885Y63725628D01*
X110535885Y63725628D02*
X110488266Y63678009D01*
X110488266Y63678009D02*
X110393028Y63630390D01*
X110393028Y63630390D02*
X110059695Y63630390D01*
X108059695Y61496580D02*
X108059695Y62496580D01*
X108059695Y62496580D02*
X108297790Y62496580D01*
X108297790Y62496580D02*
X108440647Y62448961D01*
X108440647Y62448961D02*
X108535885Y62353723D01*
X108535885Y62353723D02*
X108583504Y62258485D01*
X108583504Y62258485D02*
X108631123Y62068009D01*
X108631123Y62068009D02*
X108631123Y61925152D01*
X108631123Y61925152D02*
X108583504Y61734676D01*
X108583504Y61734676D02*
X108535885Y61639438D01*
X108535885Y61639438D02*
X108440647Y61544200D01*
X108440647Y61544200D02*
X108297790Y61496580D01*
X108297790Y61496580D02*
X108059695Y61496580D01*
X109393028Y62020390D02*
X109535885Y61972771D01*
X109535885Y61972771D02*
X109583504Y61925152D01*
X109583504Y61925152D02*
X109631123Y61829914D01*
X109631123Y61829914D02*
X109631123Y61687057D01*
X109631123Y61687057D02*
X109583504Y61591819D01*
X109583504Y61591819D02*
X109535885Y61544200D01*
X109535885Y61544200D02*
X109440647Y61496580D01*
X109440647Y61496580D02*
X109059695Y61496580D01*
X109059695Y61496580D02*
X109059695Y62496580D01*
X109059695Y62496580D02*
X109393028Y62496580D01*
X109393028Y62496580D02*
X109488266Y62448961D01*
X109488266Y62448961D02*
X109535885Y62401342D01*
X109535885Y62401342D02*
X109583504Y62306104D01*
X109583504Y62306104D02*
X109583504Y62210866D01*
X109583504Y62210866D02*
X109535885Y62115628D01*
X109535885Y62115628D02*
X109488266Y62068009D01*
X109488266Y62068009D02*
X109393028Y62020390D01*
X109393028Y62020390D02*
X109059695Y62020390D01*
X110583504Y62448961D02*
X110488266Y62496580D01*
X110488266Y62496580D02*
X110345409Y62496580D01*
X110345409Y62496580D02*
X110202552Y62448961D01*
X110202552Y62448961D02*
X110107314Y62353723D01*
X110107314Y62353723D02*
X110059695Y62258485D01*
X110059695Y62258485D02*
X110012076Y62068009D01*
X110012076Y62068009D02*
X110012076Y61925152D01*
X110012076Y61925152D02*
X110059695Y61734676D01*
X110059695Y61734676D02*
X110107314Y61639438D01*
X110107314Y61639438D02*
X110202552Y61544200D01*
X110202552Y61544200D02*
X110345409Y61496580D01*
X110345409Y61496580D02*
X110440647Y61496580D01*
X110440647Y61496580D02*
X110583504Y61544200D01*
X110583504Y61544200D02*
X110631123Y61591819D01*
X110631123Y61591819D02*
X110631123Y61925152D01*
X110631123Y61925152D02*
X110440647Y61925152D01*
X90870257Y96650390D02*
X91013114Y96602771D01*
X91013114Y96602771D02*
X91060733Y96555152D01*
X91060733Y96555152D02*
X91108352Y96459914D01*
X91108352Y96459914D02*
X91108352Y96317057D01*
X91108352Y96317057D02*
X91060733Y96221819D01*
X91060733Y96221819D02*
X91013114Y96174200D01*
X91013114Y96174200D02*
X90917876Y96126580D01*
X90917876Y96126580D02*
X90536924Y96126580D01*
X90536924Y96126580D02*
X90536924Y97126580D01*
X90536924Y97126580D02*
X90870257Y97126580D01*
X90870257Y97126580D02*
X90965495Y97078961D01*
X90965495Y97078961D02*
X91013114Y97031342D01*
X91013114Y97031342D02*
X91060733Y96936104D01*
X91060733Y96936104D02*
X91060733Y96840866D01*
X91060733Y96840866D02*
X91013114Y96745628D01*
X91013114Y96745628D02*
X90965495Y96698009D01*
X90965495Y96698009D02*
X90870257Y96650390D01*
X90870257Y96650390D02*
X90536924Y96650390D01*
X91727400Y97126580D02*
X91917876Y97126580D01*
X91917876Y97126580D02*
X92013114Y97078961D01*
X92013114Y97078961D02*
X92108352Y96983723D01*
X92108352Y96983723D02*
X92155971Y96793247D01*
X92155971Y96793247D02*
X92155971Y96459914D01*
X92155971Y96459914D02*
X92108352Y96269438D01*
X92108352Y96269438D02*
X92013114Y96174200D01*
X92013114Y96174200D02*
X91917876Y96126580D01*
X91917876Y96126580D02*
X91727400Y96126580D01*
X91727400Y96126580D02*
X91632162Y96174200D01*
X91632162Y96174200D02*
X91536924Y96269438D01*
X91536924Y96269438D02*
X91489305Y96459914D01*
X91489305Y96459914D02*
X91489305Y96793247D01*
X91489305Y96793247D02*
X91536924Y96983723D01*
X91536924Y96983723D02*
X91632162Y97078961D01*
X91632162Y97078961D02*
X91727400Y97126580D01*
X92775019Y97126580D02*
X92965495Y97126580D01*
X92965495Y97126580D02*
X93060733Y97078961D01*
X93060733Y97078961D02*
X93155971Y96983723D01*
X93155971Y96983723D02*
X93203590Y96793247D01*
X93203590Y96793247D02*
X93203590Y96459914D01*
X93203590Y96459914D02*
X93155971Y96269438D01*
X93155971Y96269438D02*
X93060733Y96174200D01*
X93060733Y96174200D02*
X92965495Y96126580D01*
X92965495Y96126580D02*
X92775019Y96126580D01*
X92775019Y96126580D02*
X92679781Y96174200D01*
X92679781Y96174200D02*
X92584543Y96269438D01*
X92584543Y96269438D02*
X92536924Y96459914D01*
X92536924Y96459914D02*
X92536924Y96793247D01*
X92536924Y96793247D02*
X92584543Y96983723D01*
X92584543Y96983723D02*
X92679781Y97078961D01*
X92679781Y97078961D02*
X92775019Y97126580D01*
X93489305Y97126580D02*
X94060733Y97126580D01*
X93775019Y96126580D02*
X93775019Y97126580D01*
X91084543Y94564200D02*
X91227400Y94516580D01*
X91227400Y94516580D02*
X91465495Y94516580D01*
X91465495Y94516580D02*
X91560733Y94564200D01*
X91560733Y94564200D02*
X91608352Y94611819D01*
X91608352Y94611819D02*
X91655971Y94707057D01*
X91655971Y94707057D02*
X91655971Y94802295D01*
X91655971Y94802295D02*
X91608352Y94897533D01*
X91608352Y94897533D02*
X91560733Y94945152D01*
X91560733Y94945152D02*
X91465495Y94992771D01*
X91465495Y94992771D02*
X91275019Y95040390D01*
X91275019Y95040390D02*
X91179781Y95088009D01*
X91179781Y95088009D02*
X91132162Y95135628D01*
X91132162Y95135628D02*
X91084543Y95230866D01*
X91084543Y95230866D02*
X91084543Y95326104D01*
X91084543Y95326104D02*
X91132162Y95421342D01*
X91132162Y95421342D02*
X91179781Y95468961D01*
X91179781Y95468961D02*
X91275019Y95516580D01*
X91275019Y95516580D02*
X91513114Y95516580D01*
X91513114Y95516580D02*
X91655971Y95468961D01*
X92084543Y95040390D02*
X92417876Y95040390D01*
X92560733Y94516580D02*
X92084543Y94516580D01*
X92084543Y94516580D02*
X92084543Y95516580D01*
X92084543Y95516580D02*
X92560733Y95516580D01*
X93465495Y94516580D02*
X92989305Y94516580D01*
X92989305Y94516580D02*
X92989305Y95516580D01*
X117795752Y81257780D02*
X117224324Y81257780D01*
X117510038Y81257780D02*
X117510038Y82257780D01*
X117510038Y82257780D02*
X117414800Y82114923D01*
X117414800Y82114923D02*
X117319562Y82019685D01*
X117319562Y82019685D02*
X117224324Y81972066D01*
X118081467Y82257780D02*
X118414800Y81257780D01*
X118414800Y81257780D02*
X118748133Y82257780D01*
X119224324Y81829209D02*
X119129086Y81876828D01*
X119129086Y81876828D02*
X119081467Y81924447D01*
X119081467Y81924447D02*
X119033848Y82019685D01*
X119033848Y82019685D02*
X119033848Y82067304D01*
X119033848Y82067304D02*
X119081467Y82162542D01*
X119081467Y82162542D02*
X119129086Y82210161D01*
X119129086Y82210161D02*
X119224324Y82257780D01*
X119224324Y82257780D02*
X119414800Y82257780D01*
X119414800Y82257780D02*
X119510038Y82210161D01*
X119510038Y82210161D02*
X119557657Y82162542D01*
X119557657Y82162542D02*
X119605276Y82067304D01*
X119605276Y82067304D02*
X119605276Y82019685D01*
X119605276Y82019685D02*
X119557657Y81924447D01*
X119557657Y81924447D02*
X119510038Y81876828D01*
X119510038Y81876828D02*
X119414800Y81829209D01*
X119414800Y81829209D02*
X119224324Y81829209D01*
X119224324Y81829209D02*
X119129086Y81781590D01*
X119129086Y81781590D02*
X119081467Y81733971D01*
X119081467Y81733971D02*
X119033848Y81638733D01*
X119033848Y81638733D02*
X119033848Y81448257D01*
X119033848Y81448257D02*
X119081467Y81353019D01*
X119081467Y81353019D02*
X119129086Y81305400D01*
X119129086Y81305400D02*
X119224324Y81257780D01*
X119224324Y81257780D02*
X119414800Y81257780D01*
X119414800Y81257780D02*
X119510038Y81305400D01*
X119510038Y81305400D02*
X119557657Y81353019D01*
X119557657Y81353019D02*
X119605276Y81448257D01*
X119605276Y81448257D02*
X119605276Y81638733D01*
X119605276Y81638733D02*
X119557657Y81733971D01*
X119557657Y81733971D02*
X119510038Y81781590D01*
X119510038Y81781590D02*
X119414800Y81829209D01*
D12*
X65130149Y76474400D02*
X65301578Y76417257D01*
X65301578Y76417257D02*
X65587292Y76417257D01*
X65587292Y76417257D02*
X65701578Y76474400D01*
X65701578Y76474400D02*
X65758720Y76531542D01*
X65758720Y76531542D02*
X65815863Y76645828D01*
X65815863Y76645828D02*
X65815863Y76760114D01*
X65815863Y76760114D02*
X65758720Y76874400D01*
X65758720Y76874400D02*
X65701578Y76931542D01*
X65701578Y76931542D02*
X65587292Y76988685D01*
X65587292Y76988685D02*
X65358720Y77045828D01*
X65358720Y77045828D02*
X65244435Y77102971D01*
X65244435Y77102971D02*
X65187292Y77160114D01*
X65187292Y77160114D02*
X65130149Y77274400D01*
X65130149Y77274400D02*
X65130149Y77388685D01*
X65130149Y77388685D02*
X65187292Y77502971D01*
X65187292Y77502971D02*
X65244435Y77560114D01*
X65244435Y77560114D02*
X65358720Y77617257D01*
X65358720Y77617257D02*
X65644435Y77617257D01*
X65644435Y77617257D02*
X65815863Y77560114D01*
X66215863Y77617257D02*
X66501577Y76417257D01*
X66501577Y76417257D02*
X66730149Y77274400D01*
X66730149Y77274400D02*
X66958720Y76417257D01*
X66958720Y76417257D02*
X67244435Y77617257D01*
X68215864Y77217257D02*
X68215864Y76417257D01*
X67930149Y77674400D02*
X67644435Y76817257D01*
X67644435Y76817257D02*
X68387292Y76817257D01*
D11*
X94046752Y67389380D02*
X93475324Y67389380D01*
X93761038Y67389380D02*
X93761038Y68389380D01*
X93761038Y68389380D02*
X93665800Y68246523D01*
X93665800Y68246523D02*
X93570562Y68151285D01*
X93570562Y68151285D02*
X93475324Y68103666D01*
X94332467Y68389380D02*
X94665800Y67389380D01*
X94665800Y67389380D02*
X94999133Y68389380D01*
X95808657Y68389380D02*
X95332467Y68389380D01*
X95332467Y68389380D02*
X95284848Y67913190D01*
X95284848Y67913190D02*
X95332467Y67960809D01*
X95332467Y67960809D02*
X95427705Y68008428D01*
X95427705Y68008428D02*
X95665800Y68008428D01*
X95665800Y68008428D02*
X95761038Y67960809D01*
X95761038Y67960809D02*
X95808657Y67913190D01*
X95808657Y67913190D02*
X95856276Y67817952D01*
X95856276Y67817952D02*
X95856276Y67579857D01*
X95856276Y67579857D02*
X95808657Y67484619D01*
X95808657Y67484619D02*
X95761038Y67437000D01*
X95761038Y67437000D02*
X95665800Y67389380D01*
X95665800Y67389380D02*
X95427705Y67389380D01*
X95427705Y67389380D02*
X95332467Y67437000D01*
X95332467Y67437000D02*
X95284848Y67484619D01*
X116162295Y70202580D02*
X116162295Y69393057D01*
X116162295Y69393057D02*
X116209914Y69297819D01*
X116209914Y69297819D02*
X116257533Y69250200D01*
X116257533Y69250200D02*
X116352771Y69202580D01*
X116352771Y69202580D02*
X116543247Y69202580D01*
X116543247Y69202580D02*
X116638485Y69250200D01*
X116638485Y69250200D02*
X116686104Y69297819D01*
X116686104Y69297819D02*
X116733723Y69393057D01*
X116733723Y69393057D02*
X116733723Y70202580D01*
X117162295Y69250200D02*
X117305152Y69202580D01*
X117305152Y69202580D02*
X117543247Y69202580D01*
X117543247Y69202580D02*
X117638485Y69250200D01*
X117638485Y69250200D02*
X117686104Y69297819D01*
X117686104Y69297819D02*
X117733723Y69393057D01*
X117733723Y69393057D02*
X117733723Y69488295D01*
X117733723Y69488295D02*
X117686104Y69583533D01*
X117686104Y69583533D02*
X117638485Y69631152D01*
X117638485Y69631152D02*
X117543247Y69678771D01*
X117543247Y69678771D02*
X117352771Y69726390D01*
X117352771Y69726390D02*
X117257533Y69774009D01*
X117257533Y69774009D02*
X117209914Y69821628D01*
X117209914Y69821628D02*
X117162295Y69916866D01*
X117162295Y69916866D02*
X117162295Y70012104D01*
X117162295Y70012104D02*
X117209914Y70107342D01*
X117209914Y70107342D02*
X117257533Y70154961D01*
X117257533Y70154961D02*
X117352771Y70202580D01*
X117352771Y70202580D02*
X117590866Y70202580D01*
X117590866Y70202580D02*
X117733723Y70154961D01*
X118495628Y69726390D02*
X118638485Y69678771D01*
X118638485Y69678771D02*
X118686104Y69631152D01*
X118686104Y69631152D02*
X118733723Y69535914D01*
X118733723Y69535914D02*
X118733723Y69393057D01*
X118733723Y69393057D02*
X118686104Y69297819D01*
X118686104Y69297819D02*
X118638485Y69250200D01*
X118638485Y69250200D02*
X118543247Y69202580D01*
X118543247Y69202580D02*
X118162295Y69202580D01*
X118162295Y69202580D02*
X118162295Y70202580D01*
X118162295Y70202580D02*
X118495628Y70202580D01*
X118495628Y70202580D02*
X118590866Y70154961D01*
X118590866Y70154961D02*
X118638485Y70107342D01*
X118638485Y70107342D02*
X118686104Y70012104D01*
X118686104Y70012104D02*
X118686104Y69916866D01*
X118686104Y69916866D02*
X118638485Y69821628D01*
X118638485Y69821628D02*
X118590866Y69774009D01*
X118590866Y69774009D02*
X118495628Y69726390D01*
X118495628Y69726390D02*
X118162295Y69726390D01*
X115757533Y67592580D02*
X115757533Y68592580D01*
X115757533Y68116390D02*
X116328961Y68116390D01*
X116328961Y67592580D02*
X116328961Y68592580D01*
X116995628Y68592580D02*
X117186104Y68592580D01*
X117186104Y68592580D02*
X117281342Y68544961D01*
X117281342Y68544961D02*
X117376580Y68449723D01*
X117376580Y68449723D02*
X117424199Y68259247D01*
X117424199Y68259247D02*
X117424199Y67925914D01*
X117424199Y67925914D02*
X117376580Y67735438D01*
X117376580Y67735438D02*
X117281342Y67640200D01*
X117281342Y67640200D02*
X117186104Y67592580D01*
X117186104Y67592580D02*
X116995628Y67592580D01*
X116995628Y67592580D02*
X116900390Y67640200D01*
X116900390Y67640200D02*
X116805152Y67735438D01*
X116805152Y67735438D02*
X116757533Y67925914D01*
X116757533Y67925914D02*
X116757533Y68259247D01*
X116757533Y68259247D02*
X116805152Y68449723D01*
X116805152Y68449723D02*
X116900390Y68544961D01*
X116900390Y68544961D02*
X116995628Y68592580D01*
X117805152Y67640200D02*
X117948009Y67592580D01*
X117948009Y67592580D02*
X118186104Y67592580D01*
X118186104Y67592580D02*
X118281342Y67640200D01*
X118281342Y67640200D02*
X118328961Y67687819D01*
X118328961Y67687819D02*
X118376580Y67783057D01*
X118376580Y67783057D02*
X118376580Y67878295D01*
X118376580Y67878295D02*
X118328961Y67973533D01*
X118328961Y67973533D02*
X118281342Y68021152D01*
X118281342Y68021152D02*
X118186104Y68068771D01*
X118186104Y68068771D02*
X117995628Y68116390D01*
X117995628Y68116390D02*
X117900390Y68164009D01*
X117900390Y68164009D02*
X117852771Y68211628D01*
X117852771Y68211628D02*
X117805152Y68306866D01*
X117805152Y68306866D02*
X117805152Y68402104D01*
X117805152Y68402104D02*
X117852771Y68497342D01*
X117852771Y68497342D02*
X117900390Y68544961D01*
X117900390Y68544961D02*
X117995628Y68592580D01*
X117995628Y68592580D02*
X118233723Y68592580D01*
X118233723Y68592580D02*
X118376580Y68544961D01*
X118662295Y68592580D02*
X119233723Y68592580D01*
X118948009Y67592580D02*
X118948009Y68592580D01*
X102382796Y63181580D02*
X102954224Y63181580D01*
X102668510Y62181580D02*
X102668510Y63181580D01*
X103287558Y62181580D02*
X103287558Y63181580D01*
X103287558Y63181580D02*
X103668510Y63181580D01*
X103668510Y63181580D02*
X103763748Y63133961D01*
X103763748Y63133961D02*
X103811367Y63086342D01*
X103811367Y63086342D02*
X103858986Y62991104D01*
X103858986Y62991104D02*
X103858986Y62848247D01*
X103858986Y62848247D02*
X103811367Y62753009D01*
X103811367Y62753009D02*
X103763748Y62705390D01*
X103763748Y62705390D02*
X103668510Y62657771D01*
X103668510Y62657771D02*
X103287558Y62657771D01*
X104239939Y63086342D02*
X104287558Y63133961D01*
X104287558Y63133961D02*
X104382796Y63181580D01*
X104382796Y63181580D02*
X104620891Y63181580D01*
X104620891Y63181580D02*
X104716129Y63133961D01*
X104716129Y63133961D02*
X104763748Y63086342D01*
X104763748Y63086342D02*
X104811367Y62991104D01*
X104811367Y62991104D02*
X104811367Y62895866D01*
X104811367Y62895866D02*
X104763748Y62753009D01*
X104763748Y62753009D02*
X104192320Y62181580D01*
X104192320Y62181580D02*
X104811367Y62181580D01*
X105418095Y67194780D02*
X105989523Y67194780D01*
X105703809Y66194780D02*
X105703809Y67194780D01*
X106322857Y66194780D02*
X106322857Y67194780D01*
X106322857Y67194780D02*
X106703809Y67194780D01*
X106703809Y67194780D02*
X106799047Y67147161D01*
X106799047Y67147161D02*
X106846666Y67099542D01*
X106846666Y67099542D02*
X106894285Y67004304D01*
X106894285Y67004304D02*
X106894285Y66861447D01*
X106894285Y66861447D02*
X106846666Y66766209D01*
X106846666Y66766209D02*
X106799047Y66718590D01*
X106799047Y66718590D02*
X106703809Y66670971D01*
X106703809Y66670971D02*
X106322857Y66670971D01*
X107846666Y66194780D02*
X107275238Y66194780D01*
X107560952Y66194780D02*
X107560952Y67194780D01*
X107560952Y67194780D02*
X107465714Y67051923D01*
X107465714Y67051923D02*
X107370476Y66956685D01*
X107370476Y66956685D02*
X107275238Y66909066D01*
X99322095Y67194780D02*
X99893523Y67194780D01*
X99607809Y66194780D02*
X99607809Y67194780D01*
X100226857Y66194780D02*
X100226857Y67194780D01*
X100226857Y67194780D02*
X100607809Y67194780D01*
X100607809Y67194780D02*
X100703047Y67147161D01*
X100703047Y67147161D02*
X100750666Y67099542D01*
X100750666Y67099542D02*
X100798285Y67004304D01*
X100798285Y67004304D02*
X100798285Y66861447D01*
X100798285Y66861447D02*
X100750666Y66766209D01*
X100750666Y66766209D02*
X100703047Y66718590D01*
X100703047Y66718590D02*
X100607809Y66670971D01*
X100607809Y66670971D02*
X100226857Y66670971D01*
X101131619Y67194780D02*
X101750666Y67194780D01*
X101750666Y67194780D02*
X101417333Y66813828D01*
X101417333Y66813828D02*
X101560190Y66813828D01*
X101560190Y66813828D02*
X101655428Y66766209D01*
X101655428Y66766209D02*
X101703047Y66718590D01*
X101703047Y66718590D02*
X101750666Y66623352D01*
X101750666Y66623352D02*
X101750666Y66385257D01*
X101750666Y66385257D02*
X101703047Y66290019D01*
X101703047Y66290019D02*
X101655428Y66242400D01*
X101655428Y66242400D02*
X101560190Y66194780D01*
X101560190Y66194780D02*
X101274476Y66194780D01*
X101274476Y66194780D02*
X101179238Y66242400D01*
X101179238Y66242400D02*
X101131619Y66290019D01*
D14*
X109152636Y75306600D02*
X108936964Y75306600D01*
X109152636Y76026600D02*
X108936964Y76026600D01*
D15*
X51489199Y87472699D02*
X64489199Y87472699D01*
X51489199Y80672699D02*
X51489199Y87472699D01*
X64489199Y87472699D02*
X64489199Y80672699D01*
X64489199Y80672699D02*
X51489199Y80672699D01*
D14*
X114939400Y74021836D02*
X114939400Y73806164D01*
X114219400Y74021836D02*
X114219400Y73806164D01*
D15*
X51489198Y80284500D02*
X64489198Y80284500D01*
X51489198Y73484500D02*
X51489198Y80284500D01*
X64489198Y80284500D02*
X64489198Y73484500D01*
X64489198Y73484500D02*
X51489198Y73484500D01*
D14*
X81886000Y95366400D02*
X81886000Y94366400D01*
X85246000Y95366400D02*
X85246000Y94366400D01*
X86886200Y95001558D02*
X86886200Y94527042D01*
X85841200Y95001558D02*
X85841200Y94527042D01*
X73584600Y110023800D02*
X68809400Y110023800D01*
X68809400Y110023800D02*
X68809400Y98523800D01*
X73584600Y98523800D02*
X73584600Y110023800D01*
X73584600Y98523800D02*
X68809400Y98523800D01*
D16*
X77779750Y90832900D02*
X77779750Y89902900D01*
X77779750Y90832900D02*
X78709750Y90832900D01*
X77779750Y70832900D02*
X77779750Y71762900D01*
X77779750Y70832900D02*
X78709750Y70832900D01*
X97779750Y90832900D02*
X96849750Y90832900D01*
X97779750Y90832900D02*
X97779750Y89902900D01*
X97779750Y70832900D02*
X96849750Y70832900D01*
X97779750Y70832900D02*
X97779750Y71762900D01*
D15*
X75661850Y89378260D02*
G75*
G03*
X75661850Y89378260I-150000J0D01*
G01*
D14*
X75360200Y99501000D02*
X73890200Y99501000D01*
X73890200Y99501000D02*
X73890200Y97216000D01*
X75360200Y97216000D02*
X75360200Y99501000D01*
X78611401Y99498000D02*
X77141401Y99498000D01*
X77141401Y99498000D02*
X77141401Y97213000D01*
X78611401Y97213000D02*
X78611401Y99498000D01*
X86739401Y99498001D02*
X85269401Y99498001D01*
X85269401Y99498001D02*
X85269401Y97213001D01*
X86739401Y97213001D02*
X86739401Y99498001D01*
X122520300Y67618000D02*
X122520300Y68126000D01*
X124293300Y67618000D02*
X131793300Y67618000D01*
X134193300Y67618000D02*
X137020300Y67618000D01*
X122520300Y78159000D02*
X122520300Y82368000D01*
X124293300Y82361000D02*
X131793300Y82361000D01*
X134193300Y82368000D02*
X137020300Y82368000D01*
X137020300Y82368000D02*
X137020300Y67618000D01*
X76985800Y99501000D02*
X75515800Y99501000D01*
X75515800Y99501000D02*
X75515800Y97216000D01*
X76985800Y97216000D02*
X76985800Y99501000D01*
X92848700Y57576800D02*
X92848700Y55576800D01*
X92848700Y53676800D02*
X92848700Y51776800D01*
X92848700Y51776800D02*
X102248700Y51776800D01*
X102248700Y57576800D02*
X102248700Y55576800D01*
X102248700Y53676800D02*
X102248700Y51776800D01*
X89031542Y100141300D02*
X89506058Y100141300D01*
X89031542Y99096300D02*
X89506058Y99096300D01*
X75383601Y95391801D02*
X75383601Y94391801D01*
X78743601Y95391801D02*
X78743601Y94391801D01*
X99249800Y97387800D02*
X93129800Y97387800D01*
X99249800Y101087800D02*
X99249800Y97387800D01*
X93129800Y97387800D02*
X93129800Y101087800D01*
X93129800Y101087800D02*
X99249800Y101087800D01*
X104844701Y64820800D02*
G75*
G03*
X104844701Y64820800I-1200000J0D01*
G01*
X113049164Y76052000D02*
X113264836Y76052000D01*
X113049164Y75332000D02*
X113264836Y75332000D01*
X117153458Y82814900D02*
X116678942Y82814900D01*
X117153458Y83859900D02*
X116678942Y83859900D01*
X107827400Y74047236D02*
X107827400Y73831564D01*
X107107400Y74047236D02*
X107107400Y73831564D01*
D11*
X66277800Y90087000D02*
X66277800Y85427000D01*
X67697800Y91507000D02*
X66277800Y90087000D01*
X67697800Y91507000D02*
X72357800Y91507000D01*
X67697800Y84007000D02*
X66277800Y85427000D01*
X67697800Y84007000D02*
X72357800Y84007000D01*
X72357800Y91507000D02*
X73777800Y90087000D01*
X73777800Y90087000D02*
X73777800Y85427000D01*
X73777800Y85427000D02*
X72357800Y84007000D01*
D14*
X112848658Y73899500D02*
X112374142Y73899500D01*
X112848658Y74944500D02*
X112374142Y74944500D01*
X124917800Y97864000D02*
X125667800Y97864000D01*
X125667800Y97864000D02*
X125667800Y99664000D01*
X125667800Y86264000D02*
X125667800Y88064000D01*
X129217800Y100574000D02*
X132017800Y100574000D01*
X129217800Y85354000D02*
X132017800Y85354000D01*
X134717800Y100574000D02*
X136817800Y100574000D01*
X134717800Y85354000D02*
X136817800Y85354000D01*
X89950236Y100528800D02*
X89734564Y100528800D01*
X89950236Y101248800D02*
X89734564Y101248800D01*
X85113801Y99498000D02*
X83643801Y99498000D01*
X83643801Y99498000D02*
X83643801Y97213000D01*
X85113801Y97213000D02*
X85113801Y99498000D01*
X81862601Y99501001D02*
X80392601Y99501001D01*
X80392601Y99501001D02*
X80392601Y97216001D01*
X81862601Y97216001D02*
X81862601Y99501001D01*
X107943500Y64820800D02*
G75*
G03*
X107943500Y64820800I-1200000J0D01*
G01*
X116165400Y78375200D02*
X116165400Y79705200D01*
X117495400Y78375200D02*
X116165400Y78375200D01*
X118765400Y78375200D02*
X121365400Y78375200D01*
X118765400Y78375200D02*
X118765400Y81035200D01*
X121365400Y78375200D02*
X121365400Y81035200D01*
X118765400Y81035200D02*
X121365400Y81035200D01*
X130922800Y63567000D02*
X130922800Y64897000D01*
X132252800Y63567000D02*
X130922800Y63567000D01*
X133522800Y63567000D02*
X136122800Y63567000D01*
X133522800Y63567000D02*
X133522800Y66227000D01*
X136122800Y63567000D02*
X136122800Y66227000D01*
X133522800Y66227000D02*
X136122800Y66227000D01*
X112360942Y73445900D02*
X112835458Y73445900D01*
X112360942Y72400900D02*
X112835458Y72400900D01*
X108680364Y92790600D02*
X108896036Y92790600D01*
X108680364Y92070600D02*
X108896036Y92070600D01*
X83488201Y99500999D02*
X82018201Y99500999D01*
X82018201Y99500999D02*
X82018201Y97215999D01*
X83488201Y97215999D02*
X83488201Y99500999D01*
X87637700Y98335000D02*
X88967700Y98335000D01*
X87637700Y97005000D02*
X87637700Y98335000D01*
X87637700Y95735000D02*
X87637700Y93135000D01*
X87637700Y95735000D02*
X90297700Y95735000D01*
X87637700Y93135000D02*
X90297700Y93135000D01*
X90297700Y95735000D02*
X90297700Y93135000D01*
D15*
X51488200Y101835900D02*
X64488200Y101835900D01*
X51488200Y95035900D02*
X51488200Y101835900D01*
X64488200Y101835900D02*
X64488200Y95035900D01*
X64488200Y95035900D02*
X51488200Y95035900D01*
D14*
X114090100Y66004100D02*
X114090100Y64024100D01*
X114090100Y66004100D02*
X128810100Y66004100D01*
X114090100Y60324100D02*
X114090100Y51784100D01*
X114090100Y51784100D02*
X128810100Y51784100D01*
X117450100Y66884100D02*
X117950100Y66384100D01*
X117950100Y66384100D02*
X118450100Y66884100D01*
X118450100Y66884100D02*
X117450100Y66884100D01*
X128810100Y64024100D02*
X128810100Y66004100D01*
X128810100Y60324100D02*
X128810100Y51784100D01*
X80237001Y99498001D02*
X78767001Y99498001D01*
X78767001Y99498001D02*
X78767001Y97213001D01*
X80237001Y97213001D02*
X80237001Y99498001D01*
X127923600Y108721200D02*
X127923600Y107391200D01*
X126593600Y108721200D02*
X127923600Y108721200D01*
X125323600Y108721200D02*
X77003600Y108721200D01*
X125323600Y108721200D02*
X125323600Y106121200D01*
X77003600Y108721200D02*
X77003600Y103521200D01*
X127923600Y106121200D02*
X127923600Y103521200D01*
X125323600Y106121200D02*
X127923600Y106121200D01*
X127923600Y103521200D02*
X77003600Y103521200D01*
X103567500Y57576800D02*
X103567500Y55576800D01*
X103567500Y53676800D02*
X103567500Y51776800D01*
X103567500Y51776800D02*
X112967500Y51776800D01*
X112967500Y57576800D02*
X112967500Y55576800D01*
X112967500Y53676800D02*
X112967500Y51776800D01*
X116983564Y84916600D02*
X117199236Y84916600D01*
X116983564Y84196600D02*
X117199236Y84196600D01*
X101745901Y64839600D02*
G75*
G03*
X101745901Y64839600I-1200000J0D01*
G01*
X109863658Y72400900D02*
X109389142Y72400900D01*
X109863658Y73445900D02*
X109389142Y73445900D01*
X60441061Y63882914D02*
X60936036Y63387939D01*
X60723904Y63882914D02*
X70057714Y54549104D01*
X70057714Y54549104D02*
X76563096Y61054486D01*
X60936036Y64377888D02*
X60441061Y63882914D01*
X67229286Y70388296D02*
X60723904Y63882914D01*
X76563096Y61054486D02*
X67229286Y70388296D01*
X109389142Y74944500D02*
X109863658Y74944500D01*
X109389142Y73899500D02*
X109863658Y73899500D01*
D15*
X51488200Y94647700D02*
X64488200Y94647700D01*
X51488200Y87847700D02*
X51488200Y94647700D01*
X64488200Y94647700D02*
X64488200Y87847700D01*
X64488200Y87847700D02*
X51488200Y87847700D01*
D14*
X130927800Y59884000D02*
X130927800Y61214000D01*
X132257800Y59884000D02*
X130927800Y59884000D01*
X133527800Y59884000D02*
X136127800Y59884000D01*
X133527800Y59884000D02*
X133527800Y62544000D01*
X136127800Y59884000D02*
X136127800Y62544000D01*
X133527800Y62544000D02*
X136127800Y62544000D01*
X93335800Y67192200D02*
X94665800Y67192200D01*
X93335800Y65862200D02*
X93335800Y67192200D01*
X93335800Y64592200D02*
X93335800Y61992200D01*
X93335800Y64592200D02*
X95995800Y64592200D01*
X93335800Y61992200D02*
X95995800Y61992200D01*
X95995800Y64592200D02*
X95995800Y61992200D01*
%LPC*%
D17*
X130100000Y105500000D03*
X130802944Y107197056D03*
X130802944Y103802944D03*
X132500000Y107900000D03*
D18*
X132500000Y105500000D03*
D17*
X132500000Y103100000D03*
X134197056Y107197056D03*
X134197056Y103802944D03*
X134900000Y105500000D03*
X130100000Y56100000D03*
X130802944Y57797056D03*
X130802944Y54402944D03*
X132500000Y58500000D03*
D18*
X132500000Y56100000D03*
D17*
X132500000Y53700000D03*
X134197056Y57797056D03*
X134197056Y54402944D03*
X134900000Y56100000D03*
X52600000Y56100000D03*
X53302944Y57797056D03*
X53302944Y54402944D03*
X55000000Y58500000D03*
D18*
X55000000Y56100000D03*
D17*
X55000000Y53700000D03*
X56697056Y57797056D03*
X56697056Y54402944D03*
X57400000Y56100000D03*
X52600000Y105511600D03*
X53302944Y107208656D03*
X53302944Y103814544D03*
X55000000Y107911600D03*
D18*
X55000000Y105511600D03*
D17*
X55000000Y103111600D03*
X56697056Y107208656D03*
X56697056Y103814544D03*
X57400000Y105511600D03*
D19*
X109524800Y75666600D03*
X108564800Y75666600D03*
D20*
X53289199Y84072699D03*
X57989199Y84072699D03*
X62689199Y84072699D03*
D21*
X114579400Y74394000D03*
X114579400Y73434000D03*
D20*
X53289198Y76884500D03*
X57989198Y76884500D03*
X62689198Y76884500D03*
D22*
X82366000Y93966400D03*
D23*
X83166000Y93966400D03*
X83966000Y93966400D03*
D22*
X84766000Y93966400D03*
X84766000Y95766400D03*
D23*
X83966000Y95766400D03*
X83166000Y95766400D03*
D22*
X82366000Y95766400D03*
D24*
X86363700Y95589300D03*
X86363700Y93939300D03*
D25*
X71196600Y107523800D03*
X71196600Y101523800D03*
D26*
X74346600Y105023800D03*
X74346600Y108223800D03*
X68046600Y108223800D03*
X74346600Y101523800D03*
X68046600Y101523800D03*
D27*
X77099750Y89432900D03*
X77099750Y89032900D03*
X77099750Y88632900D03*
X77099750Y88232900D03*
X77099750Y87832900D03*
X77099750Y87432900D03*
X77099750Y87032900D03*
X77099750Y86632900D03*
X77099750Y86232900D03*
X77099750Y85832900D03*
X77099750Y85432900D03*
X77099750Y85032900D03*
X77099750Y84632900D03*
X77099750Y84232900D03*
X77099750Y83832900D03*
X77099750Y83432900D03*
X77099750Y83032900D03*
X77099750Y82632900D03*
X77099750Y82232900D03*
X77099750Y81832900D03*
X77099750Y81432900D03*
X77099750Y81032900D03*
X77099750Y80632900D03*
X77099750Y80232900D03*
X77099750Y79832900D03*
X77099750Y79432900D03*
X77099750Y79032900D03*
X77099750Y78632900D03*
X77099750Y78232900D03*
X77099750Y77832900D03*
X77099750Y77432900D03*
X77099750Y77032900D03*
X77099750Y76632900D03*
X77099750Y76232900D03*
X77099750Y75832900D03*
X77099750Y75432900D03*
X77099750Y75032900D03*
X77099750Y74632900D03*
X77099750Y74232900D03*
X77099750Y73832900D03*
X77099750Y73432900D03*
X77099750Y73032900D03*
X77099750Y72632900D03*
X77099750Y72232900D03*
D28*
X79179750Y70152900D03*
X79579750Y70152900D03*
X79979750Y70152900D03*
X80379750Y70152900D03*
X80779750Y70152900D03*
X81179750Y70152900D03*
X81579750Y70152900D03*
X81979750Y70152900D03*
X82379750Y70152900D03*
X82779750Y70152900D03*
X83179750Y70152900D03*
X83579750Y70152900D03*
X83979750Y70152900D03*
X84379750Y70152900D03*
X84779750Y70152900D03*
X85179750Y70152900D03*
X85579750Y70152900D03*
X85979750Y70152900D03*
X86379750Y70152900D03*
X86779750Y70152900D03*
X87179750Y70152900D03*
X87579750Y70152900D03*
X87979750Y70152900D03*
X88379750Y70152900D03*
X88779750Y70152900D03*
X89179750Y70152900D03*
X89579750Y70152900D03*
X89979750Y70152900D03*
X90379750Y70152900D03*
X90779750Y70152900D03*
X91179750Y70152900D03*
X91579750Y70152900D03*
X91979750Y70152900D03*
X92379750Y70152900D03*
X92779750Y70152900D03*
X93179750Y70152900D03*
X93579750Y70152900D03*
X93979750Y70152900D03*
X94379750Y70152900D03*
X94779750Y70152900D03*
X95179750Y70152900D03*
X95579750Y70152900D03*
X95979750Y70152900D03*
X96379750Y70152900D03*
D27*
X98459750Y72232900D03*
X98459750Y72632900D03*
X98459750Y73032900D03*
X98459750Y73432900D03*
X98459750Y73832900D03*
X98459750Y74232900D03*
X98459750Y74632900D03*
X98459750Y75032900D03*
X98459750Y75432900D03*
X98459750Y75832900D03*
X98459750Y76232900D03*
X98459750Y76632900D03*
X98459750Y77032900D03*
X98459750Y77432900D03*
X98459750Y77832900D03*
X98459750Y78232900D03*
X98459750Y78632900D03*
X98459750Y79032900D03*
X98459750Y79432900D03*
X98459750Y79832900D03*
X98459750Y80232900D03*
X98459750Y80632900D03*
X98459750Y81032900D03*
X98459750Y81432900D03*
X98459750Y81832900D03*
X98459750Y82232900D03*
X98459750Y82632900D03*
X98459750Y83032900D03*
X98459750Y83432900D03*
X98459750Y83832900D03*
X98459750Y84232900D03*
X98459750Y84632900D03*
X98459750Y85032900D03*
X98459750Y85432900D03*
X98459750Y85832900D03*
X98459750Y86232900D03*
X98459750Y86632900D03*
X98459750Y87032900D03*
X98459750Y87432900D03*
X98459750Y87832900D03*
X98459750Y88232900D03*
X98459750Y88632900D03*
X98459750Y89032900D03*
X98459750Y89432900D03*
D28*
X96379750Y91512900D03*
X95979750Y91512900D03*
X95579750Y91512900D03*
X95179750Y91512900D03*
X94779750Y91512900D03*
X94379750Y91512900D03*
X93979750Y91512900D03*
X93579750Y91512900D03*
X93179750Y91512900D03*
X92779750Y91512900D03*
X92379750Y91512900D03*
X91979750Y91512900D03*
X91579750Y91512900D03*
X91179750Y91512900D03*
X90779750Y91512900D03*
X90379750Y91512900D03*
X89979750Y91512900D03*
X89579750Y91512900D03*
X89179750Y91512900D03*
X88779750Y91512900D03*
X88379750Y91512900D03*
X87979750Y91512900D03*
X87579750Y91512900D03*
X87179750Y91512900D03*
X86779750Y91512900D03*
X86379750Y91512900D03*
X85979750Y91512900D03*
X85579750Y91512900D03*
X85179750Y91512900D03*
X84779750Y91512900D03*
X84379750Y91512900D03*
X83979750Y91512900D03*
X83579750Y91512900D03*
X83179750Y91512900D03*
X82779750Y91512900D03*
X82379750Y91512900D03*
X81979750Y91512900D03*
X81579750Y91512900D03*
X81179750Y91512900D03*
X80779750Y91512900D03*
X80379750Y91512900D03*
X79979750Y91512900D03*
X79579750Y91512900D03*
X79179750Y91512900D03*
D29*
X87779750Y80832900D03*
D30*
X74625200Y98803500D03*
X74625200Y97228500D03*
X77876401Y98800500D03*
X77876401Y97225500D03*
X86004401Y98800501D03*
X86004401Y97225501D03*
D31*
X133393300Y70361000D03*
X133393300Y78361000D03*
D32*
X122393300Y77561000D03*
X122393300Y76461000D03*
X122393300Y75361000D03*
X122393300Y74261000D03*
X122393300Y73161000D03*
X122393300Y72061000D03*
X122393300Y70961000D03*
X122393300Y69861000D03*
D33*
X123393300Y67561000D03*
D34*
X132993300Y67561000D03*
D35*
X123393300Y82161000D03*
D34*
X132993300Y83061000D03*
D32*
X122393300Y68761000D03*
D30*
X76250800Y98803500D03*
X76250800Y97228500D03*
D36*
X94658700Y58276800D03*
X100438700Y58276800D03*
D37*
X94298700Y59721800D03*
X95098700Y59721800D03*
D38*
X96298700Y59721800D03*
X97298700Y59721800D03*
X97798700Y59721800D03*
X98798700Y59721800D03*
D37*
X99998700Y59721800D03*
X100798700Y59721800D03*
X100798700Y59721800D03*
X99998700Y59721800D03*
D38*
X99298700Y59721800D03*
X98298700Y59721800D03*
X96798700Y59721800D03*
X95798700Y59721800D03*
D37*
X95098700Y59721800D03*
X94298700Y59721800D03*
D39*
X93228700Y58806800D03*
D40*
X93228700Y54626800D03*
D39*
X101868700Y58806800D03*
D40*
X101868700Y54626800D03*
D41*
X88443800Y99618800D03*
X90093800Y99618800D03*
D22*
X75863601Y93991801D03*
D23*
X76663601Y93991801D03*
X77463601Y93991801D03*
D22*
X78263601Y93991801D03*
X78263601Y95791801D03*
D23*
X77463601Y95791801D03*
X76663601Y95791801D03*
D22*
X75863601Y95791801D03*
D42*
X100389800Y99237800D03*
X91989800Y99237800D03*
D43*
X103644701Y64820800D03*
D44*
X112677000Y75692000D03*
X113637000Y75692000D03*
D45*
X117741200Y83337400D03*
X116091200Y83337400D03*
D21*
X107467400Y74419400D03*
X107467400Y73459400D03*
D42*
X70027800Y91807000D03*
D46*
X70027800Y89657000D03*
D47*
X70027800Y85857000D03*
D42*
X70027800Y83707000D03*
D48*
X66452800Y89182000D03*
X66452800Y87757000D03*
X66452800Y86332000D03*
X73602800Y89182000D03*
X73602800Y87757000D03*
X73602800Y86332000D03*
D45*
X113436400Y74422000D03*
X111786400Y74422000D03*
D49*
X126617800Y97464000D03*
X126617800Y96964000D03*
X126617800Y96464000D03*
X126617800Y95964000D03*
X126617800Y95464000D03*
X126617800Y94964000D03*
X126617800Y94464000D03*
X126617800Y93964000D03*
X126617800Y93464000D03*
X126617800Y92964000D03*
X126617800Y92464000D03*
X126617800Y91964000D03*
X126617800Y91464000D03*
X126617800Y90964000D03*
X126617800Y90464000D03*
X126617800Y89964000D03*
X126617800Y89464000D03*
X126617800Y88964000D03*
X126617800Y88464000D03*
D50*
X127377800Y100214000D03*
X127377800Y85714000D03*
D51*
X133337800Y100214000D03*
X133337800Y85714000D03*
D19*
X90322400Y100888800D03*
X89362400Y100888800D03*
D30*
X84378801Y98800500D03*
X84378801Y97225500D03*
X81127601Y98803501D03*
X81127601Y97228501D03*
D43*
X106743500Y64820800D03*
D52*
X117495400Y79705200D03*
D53*
X120035400Y79705200D03*
D52*
X132252800Y64897000D03*
D53*
X134792800Y64897000D03*
D41*
X111773200Y72923400D03*
X113423200Y72923400D03*
D44*
X108308200Y92430600D03*
X109268200Y92430600D03*
D30*
X82753201Y98803499D03*
X82753201Y97228499D03*
D52*
X88967700Y97005000D03*
D53*
X88967700Y94465000D03*
D20*
X53288200Y98435900D03*
X57988200Y98435900D03*
X62688200Y98435900D03*
D54*
X117950100Y64884100D03*
D55*
X120450100Y64884100D03*
X122450100Y64884100D03*
X124950100Y64884100D03*
D56*
X114880100Y62174100D03*
X128020100Y62174100D03*
D30*
X79502001Y98800501D03*
X79502001Y97225501D03*
D52*
X126593600Y107391200D03*
D53*
X126593600Y104851200D03*
X124053600Y107391200D03*
X124053600Y104851200D03*
X121513600Y107391200D03*
X121513600Y104851200D03*
X118973600Y107391200D03*
X118973600Y104851200D03*
X116433600Y107391200D03*
X116433600Y104851200D03*
X113893600Y107391200D03*
X113893600Y104851200D03*
X111353600Y107391200D03*
X111353600Y104851200D03*
X108813600Y107391200D03*
X108813600Y104851200D03*
X106273600Y107391200D03*
X106273600Y104851200D03*
X103733600Y107391200D03*
X103733600Y104851200D03*
X101193600Y107391200D03*
X101193600Y104851200D03*
X98653600Y107391200D03*
X98653600Y104851200D03*
X96113600Y107391200D03*
X96113600Y104851200D03*
X93573600Y107391200D03*
X93573600Y104851200D03*
X91033600Y107391200D03*
X91033600Y104851200D03*
X88493600Y107391200D03*
X88493600Y104851200D03*
X85953600Y107391200D03*
X85953600Y104851200D03*
X83413600Y107391200D03*
X83413600Y104851200D03*
X80873600Y107391200D03*
X80873600Y104851200D03*
X78333600Y107391200D03*
X78333600Y104851200D03*
D36*
X105377500Y58276800D03*
X111157500Y58276800D03*
D37*
X105017500Y59721800D03*
X105817500Y59721800D03*
D38*
X107017500Y59721800D03*
X108017500Y59721800D03*
X108517500Y59721800D03*
X109517500Y59721800D03*
D37*
X110717500Y59721800D03*
X111517500Y59721800D03*
X111517500Y59721800D03*
X110717500Y59721800D03*
D38*
X110017500Y59721800D03*
X109017500Y59721800D03*
X107517500Y59721800D03*
X106517500Y59721800D03*
D37*
X105817500Y59721800D03*
X105017500Y59721800D03*
D39*
X103947500Y58806800D03*
D40*
X103947500Y54626800D03*
D39*
X112587500Y58806800D03*
D40*
X112587500Y54626800D03*
D44*
X116611400Y84556600D03*
X117571400Y84556600D03*
D43*
X100545901Y64839600D03*
D45*
X110451400Y72923400D03*
X108801400Y72923400D03*
D57*
X62138118Y64448599D03*
X62703803Y65014284D03*
X63269488Y65579970D03*
X65532230Y67842712D03*
X66097916Y68408397D03*
X66663601Y68974082D03*
X62703803Y63882914D03*
X63269488Y64448599D03*
X63835174Y65014284D03*
X66097916Y67277026D03*
X66663601Y67842712D03*
X67229286Y68408397D03*
X63269488Y63317228D03*
X63835174Y63882914D03*
X64400859Y64448599D03*
X66663601Y66711341D03*
X67229286Y67277026D03*
X67794972Y67842712D03*
X63835174Y62751543D03*
X64400859Y63317228D03*
X64966545Y63882914D03*
X67229286Y66145655D03*
X67794972Y66711341D03*
X68360657Y67277026D03*
X64400859Y62185857D03*
X64966545Y62751543D03*
X65532230Y63317228D03*
X67794972Y65579970D03*
X68360657Y66145655D03*
X68926343Y66711341D03*
X64966545Y61620172D03*
X65532230Y62185857D03*
X66097916Y62751543D03*
X68360657Y65014284D03*
X68926343Y65579970D03*
X69492028Y66145655D03*
X65532230Y61054486D03*
X66097916Y61620172D03*
X66663601Y62185857D03*
X68926343Y64448599D03*
X69492028Y65014284D03*
X70057714Y65579970D03*
X66097916Y60488801D03*
X66663601Y61054486D03*
X67229286Y61620172D03*
X69492028Y63882914D03*
X70057714Y64448599D03*
X70623399Y65014284D03*
X66663601Y59923116D03*
X67229286Y60488801D03*
X67794972Y61054486D03*
X70057714Y63317228D03*
X70623399Y63882914D03*
X71189084Y64448599D03*
X67229286Y59357430D03*
X67794972Y59923116D03*
X68360657Y60488801D03*
X70623399Y62751543D03*
X71189084Y63317228D03*
X71754770Y63882914D03*
X67794972Y58791745D03*
X68360657Y59357430D03*
X68926343Y59923116D03*
X71189084Y62185857D03*
X71754770Y62751543D03*
X72320455Y63317228D03*
X68360657Y58226059D03*
X68926343Y58791745D03*
X69492028Y59357430D03*
X71754770Y61620172D03*
X72320455Y62185857D03*
X72886141Y62751543D03*
X68926343Y57660374D03*
X69492028Y58226059D03*
X70057714Y58791745D03*
X72320455Y61054486D03*
X72886141Y61620172D03*
X73451826Y62185857D03*
X69492028Y57094688D03*
X70057714Y57660374D03*
X70623399Y58226059D03*
X72886141Y60488801D03*
X73451826Y61054486D03*
X74017512Y61620172D03*
X70057714Y56529003D03*
X70623399Y57094688D03*
X71189084Y57660374D03*
X73451826Y59923116D03*
X74017512Y60488801D03*
X74583197Y61054486D03*
X70623399Y55963318D03*
X71189084Y56529003D03*
X71754770Y57094688D03*
X74017512Y59357430D03*
X74583197Y59923116D03*
X75148882Y60488801D03*
D41*
X108801400Y74422000D03*
X110451400Y74422000D03*
D20*
X53288200Y91247700D03*
X57988200Y91247700D03*
X62688200Y91247700D03*
D52*
X132257800Y61214000D03*
D53*
X134797800Y61214000D03*
D52*
X94665800Y65862200D03*
D53*
X94665800Y63322200D03*
%LPD*%
M02*
