G04 #@! TF.GenerationSoftware,KiCad,Pcbnew,7.0.6*
G04 #@! TF.CreationDate,2023-08-22T01:44:11+01:00*
G04 #@! TF.ProjectId,yasbc,79617362-632e-46b6-9963-61645f706362,rev?*
G04 #@! TF.SameCoordinates,Original*
G04 #@! TF.FileFunction,Paste,Top*
G04 #@! TF.FilePolarity,Positive*
%FSLAX46Y46*%
G04 Gerber Fmt 4.6, Leading zero omitted, Abs format (unit mm)*
G04 Created by KiCad (PCBNEW 7.0.6) date 2023-08-22 01:44:11*
%MOMM*%
%LPD*%
G01*
G04 APERTURE LIST*
G04 Aperture macros list*
%AMRoundRect*
0 Rectangle with rounded corners*
0 $1 Rounding radius*
0 $2 $3 $4 $5 $6 $7 $8 $9 X,Y pos of 4 corners*
0 Add a 4 corners polygon primitive as box body*
4,1,4,$2,$3,$4,$5,$6,$7,$8,$9,$2,$3,0*
0 Add four circle primitives for the rounded corners*
1,1,$1+$1,$2,$3*
1,1,$1+$1,$4,$5*
1,1,$1+$1,$6,$7*
1,1,$1+$1,$8,$9*
0 Add four rect primitives between the rounded corners*
20,1,$1+$1,$2,$3,$4,$5,0*
20,1,$1+$1,$4,$5,$6,$7,0*
20,1,$1+$1,$6,$7,$8,$9,0*
20,1,$1+$1,$8,$9,$2,$3,0*%
G04 Aperture macros list end*
%ADD10C,0.010000*%
%ADD11RoundRect,0.140000X0.140000X0.170000X-0.140000X0.170000X-0.140000X-0.170000X0.140000X-0.170000X0*%
%ADD12RoundRect,0.140000X-0.170000X0.140000X-0.170000X-0.140000X0.170000X-0.140000X0.170000X0.140000X0*%
%ADD13R,0.500000X0.800000*%
%ADD14R,0.400000X0.800000*%
%ADD15RoundRect,0.200000X-0.275000X0.200000X-0.275000X-0.200000X0.275000X-0.200000X0.275000X0.200000X0*%
%ADD16RoundRect,0.060000X-0.720000X-0.060000X0.720000X-0.060000X0.720000X0.060000X-0.720000X0.060000X0*%
%ADD17RoundRect,0.060000X-0.060000X-0.720000X0.060000X-0.720000X0.060000X0.720000X-0.060000X0.720000X0*%
%ADD18RoundRect,0.218750X-0.256250X0.218750X-0.256250X-0.218750X0.256250X-0.218750X0.256250X0.218750X0*%
%ADD19R,1.600000X0.700000*%
%ADD20R,1.500000X1.200000*%
%ADD21R,2.200000X1.200000*%
%ADD22R,1.500000X1.600000*%
%ADD23R,0.600000X1.450000*%
%ADD24R,0.300000X1.450000*%
%ADD25RoundRect,0.200000X-0.200000X-0.275000X0.200000X-0.275000X0.200000X0.275000X-0.200000X0.275000X0*%
%ADD26R,2.000000X1.800000*%
%ADD27RoundRect,0.140000X-0.140000X-0.170000X0.140000X-0.170000X0.140000X0.170000X-0.140000X0.170000X0*%
%ADD28RoundRect,0.200000X0.200000X0.275000X-0.200000X0.275000X-0.200000X-0.275000X0.200000X-0.275000X0*%
%ADD29R,1.350000X1.000000*%
%ADD30R,2.600000X0.300000*%
%ADD31C,0.400000*%
G04 APERTURE END LIST*
D10*
X87389750Y78215070D02*
X85161920Y78215070D01*
X85161920Y80442900D01*
X87389750Y80442900D01*
X87389750Y78215070D01*
G36*
X87389750Y78215070D02*
G01*
X85161920Y78215070D01*
X85161920Y80442900D01*
X87389750Y80442900D01*
X87389750Y78215070D01*
G37*
X87389750Y81223323D02*
X85166920Y81223323D01*
X85166920Y83442900D01*
X87389750Y83442900D01*
X87389750Y81223323D01*
G36*
X87389750Y81223323D02*
G01*
X85166920Y81223323D01*
X85166920Y83442900D01*
X87389750Y83442900D01*
X87389750Y81223323D01*
G37*
X90389750Y81224375D02*
X88171225Y81224375D01*
X88171225Y83442900D01*
X90389750Y83442900D01*
X90389750Y81224375D01*
G36*
X90389750Y81224375D02*
G01*
X88171225Y81224375D01*
X88171225Y83442900D01*
X90389750Y83442900D01*
X90389750Y81224375D01*
G37*
X90389750Y78209800D02*
X88171707Y78209800D01*
X88171707Y80442900D01*
X90389750Y80442900D01*
X90389750Y78209800D01*
G36*
X90389750Y78209800D02*
G01*
X88171707Y78209800D01*
X88171707Y80442900D01*
X90389750Y80442900D01*
X90389750Y78209800D01*
G37*
D11*
X109524800Y75666600D03*
X108564800Y75666600D03*
D12*
X114579400Y74394000D03*
X114579400Y73434000D03*
D13*
X82366000Y93966400D03*
D14*
X83166000Y93966400D03*
X83966000Y93966400D03*
D13*
X84766000Y93966400D03*
X84766000Y95766400D03*
D14*
X83966000Y95766400D03*
X83166000Y95766400D03*
D13*
X82366000Y95766400D03*
D15*
X86363700Y95589300D03*
X86363700Y93939300D03*
D16*
X77099750Y89432900D03*
X77099750Y89032900D03*
X77099750Y88632900D03*
X77099750Y88232900D03*
X77099750Y87832900D03*
X77099750Y87432900D03*
X77099750Y87032900D03*
X77099750Y86632900D03*
X77099750Y86232900D03*
X77099750Y85832900D03*
X77099750Y85432900D03*
X77099750Y85032900D03*
X77099750Y84632900D03*
X77099750Y84232900D03*
X77099750Y83832900D03*
X77099750Y83432900D03*
X77099750Y83032900D03*
X77099750Y82632900D03*
X77099750Y82232900D03*
X77099750Y81832900D03*
X77099750Y81432900D03*
X77099750Y81032900D03*
X77099750Y80632900D03*
X77099750Y80232900D03*
X77099750Y79832900D03*
X77099750Y79432900D03*
X77099750Y79032900D03*
X77099750Y78632900D03*
X77099750Y78232900D03*
X77099750Y77832900D03*
X77099750Y77432900D03*
X77099750Y77032900D03*
X77099750Y76632900D03*
X77099750Y76232900D03*
X77099750Y75832900D03*
X77099750Y75432900D03*
X77099750Y75032900D03*
X77099750Y74632900D03*
X77099750Y74232900D03*
X77099750Y73832900D03*
X77099750Y73432900D03*
X77099750Y73032900D03*
X77099750Y72632900D03*
X77099750Y72232900D03*
D17*
X79179750Y70152900D03*
X79579750Y70152900D03*
X79979750Y70152900D03*
X80379750Y70152900D03*
X80779750Y70152900D03*
X81179750Y70152900D03*
X81579750Y70152900D03*
X81979750Y70152900D03*
X82379750Y70152900D03*
X82779750Y70152900D03*
X83179750Y70152900D03*
X83579750Y70152900D03*
X83979750Y70152900D03*
X84379750Y70152900D03*
X84779750Y70152900D03*
X85179750Y70152900D03*
X85579750Y70152900D03*
X85979750Y70152900D03*
X86379750Y70152900D03*
X86779750Y70152900D03*
X87179750Y70152900D03*
X87579750Y70152900D03*
X87979750Y70152900D03*
X88379750Y70152900D03*
X88779750Y70152900D03*
X89179750Y70152900D03*
X89579750Y70152900D03*
X89979750Y70152900D03*
X90379750Y70152900D03*
X90779750Y70152900D03*
X91179750Y70152900D03*
X91579750Y70152900D03*
X91979750Y70152900D03*
X92379750Y70152900D03*
X92779750Y70152900D03*
X93179750Y70152900D03*
X93579750Y70152900D03*
X93979750Y70152900D03*
X94379750Y70152900D03*
X94779750Y70152900D03*
X95179750Y70152900D03*
X95579750Y70152900D03*
X95979750Y70152900D03*
X96379750Y70152900D03*
D16*
X98459750Y72232900D03*
X98459750Y72632900D03*
X98459750Y73032900D03*
X98459750Y73432900D03*
X98459750Y73832900D03*
X98459750Y74232900D03*
X98459750Y74632900D03*
X98459750Y75032900D03*
X98459750Y75432900D03*
X98459750Y75832900D03*
X98459750Y76232900D03*
X98459750Y76632900D03*
X98459750Y77032900D03*
X98459750Y77432900D03*
X98459750Y77832900D03*
X98459750Y78232900D03*
X98459750Y78632900D03*
X98459750Y79032900D03*
X98459750Y79432900D03*
X98459750Y79832900D03*
X98459750Y80232900D03*
X98459750Y80632900D03*
X98459750Y81032900D03*
X98459750Y81432900D03*
X98459750Y81832900D03*
X98459750Y82232900D03*
X98459750Y82632900D03*
X98459750Y83032900D03*
X98459750Y83432900D03*
X98459750Y83832900D03*
X98459750Y84232900D03*
X98459750Y84632900D03*
X98459750Y85032900D03*
X98459750Y85432900D03*
X98459750Y85832900D03*
X98459750Y86232900D03*
X98459750Y86632900D03*
X98459750Y87032900D03*
X98459750Y87432900D03*
X98459750Y87832900D03*
X98459750Y88232900D03*
X98459750Y88632900D03*
X98459750Y89032900D03*
X98459750Y89432900D03*
D17*
X96379750Y91512900D03*
X95979750Y91512900D03*
X95579750Y91512900D03*
X95179750Y91512900D03*
X94779750Y91512900D03*
X94379750Y91512900D03*
X93979750Y91512900D03*
X93579750Y91512900D03*
X93179750Y91512900D03*
X92779750Y91512900D03*
X92379750Y91512900D03*
X91979750Y91512900D03*
X91579750Y91512900D03*
X91179750Y91512900D03*
X90779750Y91512900D03*
X90379750Y91512900D03*
X89979750Y91512900D03*
X89579750Y91512900D03*
X89179750Y91512900D03*
X88779750Y91512900D03*
X88379750Y91512900D03*
X87979750Y91512900D03*
X87579750Y91512900D03*
X87179750Y91512900D03*
X86779750Y91512900D03*
X86379750Y91512900D03*
X85979750Y91512900D03*
X85579750Y91512900D03*
X85179750Y91512900D03*
X84779750Y91512900D03*
X84379750Y91512900D03*
X83979750Y91512900D03*
X83579750Y91512900D03*
X83179750Y91512900D03*
X82779750Y91512900D03*
X82379750Y91512900D03*
X81979750Y91512900D03*
X81579750Y91512900D03*
X81179750Y91512900D03*
X80779750Y91512900D03*
X80379750Y91512900D03*
X79979750Y91512900D03*
X79579750Y91512900D03*
X79179750Y91512900D03*
D18*
X74625200Y98803500D03*
X74625200Y97228500D03*
X77876401Y98800500D03*
X77876401Y97225500D03*
X86004401Y98800501D03*
X86004401Y97225501D03*
D19*
X122393300Y77561000D03*
X122393300Y76461000D03*
X122393300Y75361000D03*
X122393300Y74261000D03*
X122393300Y73161000D03*
X122393300Y72061000D03*
X122393300Y70961000D03*
X122393300Y69861000D03*
D20*
X123393300Y67561000D03*
D21*
X132993300Y67561000D03*
D22*
X123393300Y82161000D03*
D21*
X132993300Y83061000D03*
D19*
X122393300Y68761000D03*
D18*
X76250800Y98803500D03*
X76250800Y97228500D03*
D23*
X94298700Y59721800D03*
X95098700Y59721800D03*
D24*
X96298700Y59721800D03*
X97298700Y59721800D03*
X97798700Y59721800D03*
X98798700Y59721800D03*
D23*
X99998700Y59721800D03*
X100798700Y59721800D03*
X100798700Y59721800D03*
X99998700Y59721800D03*
D24*
X99298700Y59721800D03*
X98298700Y59721800D03*
X96798700Y59721800D03*
X95798700Y59721800D03*
D23*
X95098700Y59721800D03*
X94298700Y59721800D03*
D25*
X88443800Y99618800D03*
X90093800Y99618800D03*
D13*
X75863601Y93991801D03*
D14*
X76663601Y93991801D03*
X77463601Y93991801D03*
D13*
X78263601Y93991801D03*
X78263601Y95791801D03*
D14*
X77463601Y95791801D03*
X76663601Y95791801D03*
D13*
X75863601Y95791801D03*
D26*
X100389800Y99237800D03*
X91989800Y99237800D03*
D27*
X112677000Y75692000D03*
X113637000Y75692000D03*
D28*
X117741200Y83337400D03*
X116091200Y83337400D03*
D12*
X107467400Y74419400D03*
X107467400Y73459400D03*
D26*
X70027800Y91807000D03*
X70027800Y83707000D03*
D29*
X66452800Y89182000D03*
X66452800Y87757000D03*
X66452800Y86332000D03*
X73602800Y89182000D03*
X73602800Y87757000D03*
X73602800Y86332000D03*
D28*
X113436400Y74422000D03*
X111786400Y74422000D03*
D30*
X126617800Y97464000D03*
X126617800Y96964000D03*
X126617800Y96464000D03*
X126617800Y95964000D03*
X126617800Y95464000D03*
X126617800Y94964000D03*
X126617800Y94464000D03*
X126617800Y93964000D03*
X126617800Y93464000D03*
X126617800Y92964000D03*
X126617800Y92464000D03*
X126617800Y91964000D03*
X126617800Y91464000D03*
X126617800Y90964000D03*
X126617800Y90464000D03*
X126617800Y89964000D03*
X126617800Y89464000D03*
X126617800Y88964000D03*
X126617800Y88464000D03*
D11*
X90322400Y100888800D03*
X89362400Y100888800D03*
D18*
X84378801Y98800500D03*
X84378801Y97225500D03*
X81127601Y98803501D03*
X81127601Y97228501D03*
D25*
X111773200Y72923400D03*
X113423200Y72923400D03*
D27*
X108308200Y92430600D03*
X109268200Y92430600D03*
D18*
X82753201Y98803499D03*
X82753201Y97228499D03*
X79502001Y98800501D03*
X79502001Y97225501D03*
D23*
X105017500Y59721800D03*
X105817500Y59721800D03*
D24*
X107017500Y59721800D03*
X108017500Y59721800D03*
X108517500Y59721800D03*
X109517500Y59721800D03*
D23*
X110717500Y59721800D03*
X111517500Y59721800D03*
X111517500Y59721800D03*
X110717500Y59721800D03*
D24*
X110017500Y59721800D03*
X109017500Y59721800D03*
X107517500Y59721800D03*
X106517500Y59721800D03*
D23*
X105817500Y59721800D03*
X105017500Y59721800D03*
D27*
X116611400Y84556600D03*
X117571400Y84556600D03*
D28*
X110451400Y72923400D03*
X108801400Y72923400D03*
D31*
X62138118Y64448599D03*
X62703803Y65014284D03*
X63269488Y65579970D03*
X65532230Y67842712D03*
X66097916Y68408397D03*
X66663601Y68974082D03*
X62703803Y63882914D03*
X63269488Y64448599D03*
X63835174Y65014284D03*
X66097916Y67277026D03*
X66663601Y67842712D03*
X67229286Y68408397D03*
X63269488Y63317228D03*
X63835174Y63882914D03*
X64400859Y64448599D03*
X66663601Y66711341D03*
X67229286Y67277026D03*
X67794972Y67842712D03*
X63835174Y62751543D03*
X64400859Y63317228D03*
X64966545Y63882914D03*
X67229286Y66145655D03*
X67794972Y66711341D03*
X68360657Y67277026D03*
X64400859Y62185857D03*
X64966545Y62751543D03*
X65532230Y63317228D03*
X67794972Y65579970D03*
X68360657Y66145655D03*
X68926343Y66711341D03*
X64966545Y61620172D03*
X65532230Y62185857D03*
X66097916Y62751543D03*
X68360657Y65014284D03*
X68926343Y65579970D03*
X69492028Y66145655D03*
X65532230Y61054486D03*
X66097916Y61620172D03*
X66663601Y62185857D03*
X68926343Y64448599D03*
X69492028Y65014284D03*
X70057714Y65579970D03*
X66097916Y60488801D03*
X66663601Y61054486D03*
X67229286Y61620172D03*
X69492028Y63882914D03*
X70057714Y64448599D03*
X70623399Y65014284D03*
X66663601Y59923116D03*
X67229286Y60488801D03*
X67794972Y61054486D03*
X70057714Y63317228D03*
X70623399Y63882914D03*
X71189084Y64448599D03*
X67229286Y59357430D03*
X67794972Y59923116D03*
X68360657Y60488801D03*
X70623399Y62751543D03*
X71189084Y63317228D03*
X71754770Y63882914D03*
X67794972Y58791745D03*
X68360657Y59357430D03*
X68926343Y59923116D03*
X71189084Y62185857D03*
X71754770Y62751543D03*
X72320455Y63317228D03*
X68360657Y58226059D03*
X68926343Y58791745D03*
X69492028Y59357430D03*
X71754770Y61620172D03*
X72320455Y62185857D03*
X72886141Y62751543D03*
X68926343Y57660374D03*
X69492028Y58226059D03*
X70057714Y58791745D03*
X72320455Y61054486D03*
X72886141Y61620172D03*
X73451826Y62185857D03*
X69492028Y57094688D03*
X70057714Y57660374D03*
X70623399Y58226059D03*
X72886141Y60488801D03*
X73451826Y61054486D03*
X74017512Y61620172D03*
X70057714Y56529003D03*
X70623399Y57094688D03*
X71189084Y57660374D03*
X73451826Y59923116D03*
X74017512Y60488801D03*
X74583197Y61054486D03*
X70623399Y55963318D03*
X71189084Y56529003D03*
X71754770Y57094688D03*
X74017512Y59357430D03*
X74583197Y59923116D03*
X75148882Y60488801D03*
D25*
X108801400Y74422000D03*
X110451400Y74422000D03*
M02*
