M48
; DRILL file {KiCad 7.0.6} date Tue Aug 22 01:44:06 2023
; FORMAT={-:-/ absolute / inch / decimal}
; #@! TF.CreationDate,2023-08-22T01:44:06+01:00
; #@! TF.GenerationSoftware,Kicad,Pcbnew,7.0.6
; #@! TF.FileFunction,Plated,1,4,PTH
FMAT,2
INCH
; #@! TA.AperFunction,Plated,PTH,ViaDrill
T1C0.0079
; #@! TA.AperFunction,Plated,PTH,ViaDrill
T2C0.0080
; #@! TA.AperFunction,Plated,PTH,ViaDrill
T3C0.0118
; #@! TA.AperFunction,Plated,PTH,ComponentDrill
T4C0.0197
; #@! TA.AperFunction,Plated,PTH,ComponentDrill
T5C0.0236
; #@! TA.AperFunction,Plated,PTH,ComponentDrill
T6C0.0354
; #@! TA.AperFunction,Plated,PTH,ComponentDrill
T7C0.0362
; #@! TA.AperFunction,Plated,PTH,ComponentDrill
T8C0.0394
; #@! TA.AperFunction,Plated,PTH,ComponentDrill
T9C0.0709
; #@! TA.AperFunction,Plated,PTH,ComponentDrill
T10C0.0906
; #@! TA.AperFunction,Plated,PTH,ComponentDrill
T11C0.1260
%
G90
G05
T1
X2.02Y2.86
X2.02Y2.76
X2.02Y2.66
X2.02Y2.56
X2.02Y2.46
X2.02Y2.36
X2.054Y3.764
X2.08Y3.416
X2.082Y3.694
X2.09Y3.218
X2.096Y3.126
X2.118Y2.94
X2.136Y3.504
X2.154Y3.974
X2.191Y2.992
X2.196Y3.834
X2.242Y2.94
X2.263Y2.66
X2.29Y2.521
X2.32Y4.28
X2.32Y2.14
X2.32Y2.06
X2.327Y2.829
X2.36Y4.16
X2.364Y3.964
X2.368Y3.688
X2.368Y3.398
X2.372Y3.532
X2.372Y3.256
X2.372Y3.112
X2.378Y3.79
X2.378Y2.423
X2.38Y2.98
X2.42Y4.28
X2.42Y2.14
X2.42Y2.06
X2.4321Y2.5234
X2.443Y2.311
X2.448Y2.88
X2.448Y2.374
X2.4551Y2.5014
X2.46Y4.16
X2.469Y2.865
X2.471Y2.537
X2.475Y2.479
X2.496Y2.56
X2.5Y3.12
X2.501Y2.452
X2.519Y2.493
X2.52Y4.28
X2.52Y2.06
X2.541Y2.471
X2.5431Y2.4124
X2.549Y2.582
X2.55Y2.204
X2.559Y2.448
X2.56Y4.16
X2.562Y2.492
X2.5661Y2.3904
X2.579Y2.47
X2.58Y3.455
X2.6Y3.78
X2.6Y3.7
X2.6Y3.3
X2.6005Y2.7114
X2.602Y2.448
X2.604Y2.321
X2.6051Y2.4034
X2.614Y2.209
X2.617Y2.525
X2.62Y4.28
X2.62Y3.02
X2.622Y2.381
X2.6225Y2.7334
X2.637Y2.146
X2.64Y3.18
X2.6403Y2.5017
X2.6461Y2.3614
X2.6557Y2.4863
X2.656Y4.092
X2.6595Y2.7054
X2.664Y4.174
X2.6691Y2.3394
X2.672Y3.634
X2.676Y3.876
X2.6771Y2.2784
X2.6815Y2.6834
X2.683Y3.588
X2.684Y3.323
X2.687Y2.404
X2.689Y2.475
X2.6901Y2.3174
X2.6905Y2.5864
X2.691Y2.627
X2.694Y3.425
X2.6991Y2.2564
X2.702Y3.515
X2.709Y2.382
X2.712Y3.794
X2.7125Y2.5194
X2.72Y2.233
X2.7265Y2.6384
X2.731Y3.914
X2.731Y2.36
X2.734Y3.712
X2.7355Y2.5414
X2.744Y2.209
X2.7447Y2.4725
X2.7485Y2.6164
X2.758Y2.293
X2.758Y2.248
X2.76Y4.08
X2.7601Y2.4571
X2.7717Y2.5945
X2.772Y4.312
X2.772Y2.182
X2.781Y2.27
X2.785Y3.475
X2.79Y3.42
X2.7933Y2.5723
X2.801Y4.15
X2.802Y2.299
X2.803Y2.514
X2.803Y2.248
X2.805Y2.47
X2.809Y3.561
X2.81Y3.818
X2.812Y3.512
X2.813Y3.398
X2.818Y4.13
X2.8205Y2.4934
X2.824Y4.18
X2.825Y2.125
X2.827Y2.391
X2.828Y3.71
X2.831Y3.324
X2.839Y2.234
X2.847Y2.426
X2.857Y3.4689
X2.868Y4.294
X2.872Y4.214
X2.874Y3.634
X2.8825Y2.4834
X2.886Y3.592
X2.9045Y2.4614
X2.906Y3.592
X2.908Y3.735
X2.926Y3.766
X2.9265Y2.4384
X2.928Y3.592
X2.934Y2.89
X2.935Y2.955
X2.935Y2.923
X2.938Y3.864
X2.94Y4.2
X2.94Y4.08
X2.94Y3.3
X2.94Y3.08
X2.9485Y2.4164
X2.951Y2.907
X2.951Y2.875
X2.952Y2.97
X2.952Y2.939
X2.958Y3.4439
X2.968Y2.796
X2.9715Y2.3934
X2.981Y3.08
X2.9945Y3.4728
X2.9947Y3.268
X2.996Y3.096
X3.002Y3.864
X3.013Y4.035
X3.035Y3.63
X3.04Y3.735
X3.064Y3.864
X3.076Y3.2539
X3.0761Y3.4584
X3.0761Y3.3954
X3.0761Y3.3644
X3.0761Y3.2854
X3.081Y3.493
X3.1106Y2.7234
X3.126Y2.708
X3.13Y3.864
X3.141Y3.15
X3.159Y3.458
X3.16Y3.42
X3.16Y3.364
X3.16Y3.064
X3.16Y2.985
X3.16Y2.867
X3.162Y2.914
X3.164Y3.562
X3.165Y3.74
X3.165Y3.479
X3.178Y3.256
X3.186Y3.038
X3.194Y3.864
X3.196Y3.558
X3.196Y3.462
X3.196Y3.44
X3.2Y3.371
X3.201Y3.123
X3.218Y4.176
X3.228Y3.479
X3.2281Y3.5624
X3.23Y2.941
X3.243Y3.3349
X3.243Y2.888
X3.244Y3.177
X3.246Y3.127
X3.25Y3.44
X3.25Y3.387
X3.254Y4.178
X3.258Y3.864
X3.261Y4.028
X3.267Y2.122
X3.285Y3.735
X3.306Y3.645
X3.31Y2.98
X3.316Y2.875
X3.32Y3.864
X3.3212Y2.72
X3.322Y3.561
X3.335Y3.44
X3.338Y2.704
X3.345Y3.647
X3.348Y4.05
X3.348Y3.342
X3.35Y3.562
X3.352Y3.042
X3.353Y2.72
X3.3722Y3.563
X3.38Y2.97
X3.384Y3.438
X3.385Y2.886
X3.386Y3.864
X3.4079Y2.935
X3.41Y2.891
X3.4291Y3.7634
X3.432Y3.48
X3.4321Y3.5624
X3.433Y2.701
X3.435Y3.405
X3.435Y3.37
X3.443Y3.645
X3.448Y2.718
X3.45Y2.87
X3.45Y2.848
X3.464Y2.702
X3.475Y3.48
X3.4791Y2.7175
X3.486Y2.164
X3.488Y3.014
X3.4951Y2.7029
X3.498Y4.18
X3.508Y3.334
X3.509Y3.923
X3.5115Y2.8024
X3.512Y2.887
X3.527Y2.716
X3.542Y3.479
X3.552Y3.036
X3.552Y2.97
X3.558Y2.887
X3.56Y4.174
X3.579Y2.6439
X3.579Y2.6039
X3.579Y2.5639
X3.579Y2.5239
X3.579Y2.4839
X3.579Y2.4439
X3.579Y2.3639
X3.579Y2.3239
X3.579Y2.2839
X3.579Y2.2439
X3.579Y2.2039
X3.579Y2.1639
X3.579Y2.1239
X3.58Y2.405
X3.59Y4.0
X3.59Y2.722
X3.592Y3.294
X3.593Y3.439
X3.595Y3.255
X3.598Y2.887
X3.602Y3.05
X3.604Y3.192
X3.604Y3.106
X3.606Y3.858
X3.634Y4.096
X3.635Y3.459
X3.636Y2.887
X3.64Y4.02
X3.64Y2.97
X3.653Y3.479
X3.655Y3.035
X3.662Y3.192
X3.664Y3.295
X3.664Y3.104
X3.669Y2.688
X3.675Y3.944
X3.676Y2.887
X3.6795Y2.7204
X3.699Y3.943
X3.7045Y2.7204
X3.707Y3.052
X3.714Y2.388
X3.715Y3.42
X3.715Y3.31
X3.715Y3.255
X3.7155Y2.8024
X3.716Y2.888
X3.718Y3.5
X3.718Y3.48
X3.718Y3.458
X3.724Y2.216
X3.725Y3.034
X3.732Y4.096
X3.738Y3.944
X3.744Y2.4105
X3.744Y2.3915
X3.751Y3.017
X3.751Y2.982
X3.752Y3.16
X3.755Y3.21
X3.756Y2.076
X3.781Y3.92
X3.7915Y2.39
X3.805Y2.705
X3.805Y2.64
X3.805Y2.565
X3.81Y2.875
X3.8233Y3.0783
X3.825Y3.21
X3.828Y2.7659
X3.8291Y2.7417
X3.832Y2.452
X3.833Y3.905
X3.8338Y3.3007
X3.834Y3.364
X3.834Y3.269
X3.8341Y2.9854
X3.8343Y2.8928
X3.835Y2.8709
X3.836Y3.235
X3.8361Y3.0174
X3.84Y4.02
X3.856Y3.845
X3.89Y2.804
X3.89Y2.705
X3.89Y2.64
X3.89Y2.565
X3.904Y4.184
X3.9095Y2.39
X3.91Y2.414
X3.9175Y2.971
X3.918Y3.474
X3.919Y3.442
X3.919Y3.379
X3.919Y3.348
X3.919Y3.317
X3.919Y3.285
X3.919Y3.254
X3.919Y3.095
X3.926Y3.568
X3.928Y4.04
X3.934Y3.111
X3.934Y2.67
X3.935Y3.458
X3.936Y3.426
X3.937Y2.4105
X3.937Y2.3915
X3.94Y3.582
X3.94Y2.706
X3.9424Y3.405
X3.943Y3.381
X3.95Y3.248
X3.95Y3.048
X3.952Y4.18
X3.954Y3.596
X3.955Y3.85
X3.9555Y2.449
X3.956Y2.144
X3.9565Y2.472
X3.965Y3.305
X3.97Y2.388
X3.975Y3.62
X3.976Y2.234
X3.986Y2.672
X3.993Y3.066
X3.997Y3.216
X4.006Y3.312
X4.012Y2.589
X4.04Y4.02
X4.04Y3.94
X4.062Y2.996
X4.066Y3.216
X4.075Y3.465
X4.08Y3.715
X4.08Y2.659
X4.084Y3.138
X4.0975Y2.416
X4.0985Y2.6468
X4.099Y3.507
X4.1Y3.39
X4.1Y3.35
X4.101Y3.547
X4.101Y3.428
X4.108Y4.176
X4.111Y3.861
X4.114Y3.526
X4.114Y3.409
X4.114Y3.369
X4.114Y2.994
X4.115Y3.487
X4.116Y3.838
X4.116Y3.33
X4.12Y2.659
X4.13Y3.21
X4.13Y3.16
X4.13Y3.11
X4.132Y3.994
X4.136Y2.388
X4.138Y4.04
X4.1385Y2.6468
X4.145Y2.465
X4.145Y2.43
X4.15Y2.236
X4.155Y3.585
X4.158Y4.176
X4.16Y2.659
X4.162Y2.994
X4.166Y2.4115
X4.166Y2.3925
X4.1785Y2.6468
X4.18Y3.88
X4.188Y3.168
X4.192Y3.116
X4.195Y3.63
X4.2Y2.659
X4.204Y2.996
X4.2135Y2.39
X4.227Y2.996
X4.228Y3.458
X4.232Y3.366
X4.235Y3.666
X4.236Y4.106
X4.237Y2.857
X4.24Y3.94
X4.24Y3.526
X4.2405Y2.8102
X4.244Y3.292
X4.25Y3.232
X4.2515Y2.7242
X4.254Y2.986
X4.254Y2.872
X4.255Y3.68
X4.255Y2.907
X4.26Y4.02
X4.2625Y2.8102
X4.272Y3.663
X4.276Y3.127
X4.282Y3.69
X4.287Y2.763
X4.2935Y2.6902
X4.295Y3.663
X4.3Y4.176
X4.3Y3.093
X4.32Y3.86
X4.329Y2.472
X4.33Y3.536
X4.33Y2.545
X4.3315Y2.39
X4.3328Y3.2251
X4.333Y4.058
X4.334Y3.692
X4.338Y3.093
X4.34Y2.966
X4.341Y2.989
X4.353Y3.665
X4.3545Y3.2251
X4.359Y2.4115
X4.359Y2.3925
X4.36Y2.989
X4.362Y4.176
X4.363Y2.966
X4.3695Y2.7582
X4.3705Y2.6792
X4.372Y2.641
X4.372Y2.621
X4.373Y3.677
X4.373Y3.093
X4.375Y3.28
X4.382Y2.248
X4.385Y2.966
X4.386Y2.989
X4.39Y2.388
X4.3918Y3.2253
X4.393Y3.665
X4.395Y2.748
X4.4Y3.82
X4.405Y2.989
X4.408Y2.966
X4.41Y2.545
X4.41Y2.49
X4.411Y3.093
X4.413Y3.677
X4.4135Y3.2253
X4.432Y3.665
X4.435Y3.28
X4.44Y3.98
X4.4509Y3.2233
X4.452Y3.677
X4.46Y3.525
X4.461Y2.6902
X4.4726Y3.2233
X4.482Y3.69
X4.4865Y2.8102
X4.491Y2.954
X4.492Y3.093
X4.495Y3.28
X4.495Y2.856
X4.496Y2.98
X4.4985Y2.7252
X4.5Y3.94
X4.5085Y2.8102
X4.5099Y3.2222
X4.51Y3.5
X4.511Y2.954
X4.514Y2.856
X4.52Y4.04
X4.531Y3.093
X4.5317Y3.2222
X4.533Y2.983
X4.535Y3.43
X4.542Y4.176
X4.544Y3.29
X4.545Y2.25
X4.545Y2.15
X4.5475Y2.6562
X4.552Y2.983
X4.563Y3.828
X4.564Y2.558
X4.565Y3.329
X4.566Y2.364
X4.567Y2.644
X4.5875Y2.6562
X4.602Y3.746
X4.607Y2.644
X4.62Y4.04
X4.6275Y2.6562
X4.64Y3.705
X4.647Y2.644
X4.664Y3.371
X4.664Y3.248
X4.667Y3.567
X4.6675Y2.6562
X4.669Y3.485
X4.67Y2.07
X4.675Y2.995
X4.68Y3.665
X4.68Y2.825
X4.693Y4.295
X4.696Y3.382
X4.7Y3.455
X4.72Y3.528
X4.72Y2.372
X4.722Y3.928
X4.724Y3.349
X4.724Y3.311
X4.724Y3.271
X4.73Y3.625
X4.734Y4.162
X4.736Y4.212
X4.757Y2.65
X4.757Y2.613
X4.7652Y3.4828
X4.775Y2.934
X4.775Y2.912
X4.776Y3.01
X4.777Y3.054
X4.777Y2.794
X4.777Y2.967
X4.777Y2.75
X4.795Y3.53
X4.802Y3.434
X4.81Y3.33
X4.83Y2.454
X4.84Y3.58
X4.844Y2.348
X4.858Y3.848
X4.86Y3.79
X4.86Y3.73
X4.86Y3.675
X4.86Y3.33
X4.864Y2.903
X4.865Y2.883
X4.872Y3.434
X4.872Y2.773
X4.875Y2.25
X4.875Y2.225
X4.875Y2.2
X4.885Y3.52
X4.898Y3.562
X4.92Y2.335
X4.923Y3.563
X4.93Y4.162
X4.94Y4.092
X4.94Y2.09
X4.976Y4.295
X4.976Y2.63
X4.98Y2.26
X4.996Y2.772
X5.03Y4.03
X5.05Y3.503
X5.054Y2.744
X5.065Y3.455
X5.065Y2.93
X5.07Y3.875
X5.07Y3.765
X5.07Y3.19
X5.08Y4.08
X5.14Y3.875
X5.14Y3.765
X5.14Y3.455
X5.14Y3.19
X5.142Y2.744
X5.145Y2.93
X5.17Y2.055
X5.346Y2.288
T2
X2.58Y3.512
X2.58Y3.399
X2.5881Y2.6278
X2.6037Y2.6123
X2.625Y2.426
X2.628Y2.592
X2.6321Y2.5705
X2.654Y2.567
X2.711Y2.657
X2.934Y3.512
X2.934Y3.399
X2.965Y3.0517
X2.965Y3.0297
X2.99Y3.0202
X2.99Y2.9982
X3.0765Y3.1754
X3.0765Y3.0644
X3.0765Y2.9854
X3.0765Y2.8594
X3.2435Y2.8044
X3.3855Y2.8024
X3.5425Y3.5624
X3.5585Y2.8024
X3.6055Y2.8024
X3.6525Y3.5624
X3.6685Y2.8024
X3.8355Y3.1594
X3.887Y2.193
X4.2716Y2.4026
X4.2945Y2.403
X4.306Y2.194
X4.872Y3.039
X4.872Y2.981
X4.936Y2.796
X4.936Y2.776
X4.936Y2.756
X4.936Y2.662
X4.936Y2.642
X4.936Y2.622
T3
X3.985Y3.014
X3.985Y2.987
X3.985Y2.959
T4
X2.0709Y4.154
X2.0709Y2.2087
X2.0985Y4.2208
X2.0985Y4.0872
X2.0985Y2.2755
X2.0985Y2.1418
X2.1654Y4.2485
X2.1654Y4.0595
X2.1654Y2.3031
X2.1654Y2.1142
X2.2322Y4.2208
X2.2322Y4.0872
X2.2322Y2.2755
X2.2322Y2.1418
X2.2598Y4.154
X2.2598Y2.2087
X5.122Y4.1535
X5.122Y2.2087
X5.1497Y4.2204
X5.1497Y4.0867
X5.1497Y2.2755
X5.1497Y2.1418
X5.2165Y4.248
X5.2165Y4.0591
X5.2165Y2.3031
X5.2165Y2.1142
X5.2833Y4.2204
X5.2833Y4.0867
X5.2833Y2.2755
X5.2833Y2.1418
X5.311Y4.1535
X5.311Y2.2087
T7
X4.6437Y2.5545
X4.7421Y2.5545
X4.8209Y2.5545
X4.9193Y2.5545
T8
X3.084Y4.228
X3.084Y4.128
X3.184Y4.228
X3.184Y4.128
X3.284Y4.228
X3.284Y4.128
X3.384Y4.228
X3.384Y4.128
X3.484Y4.228
X3.484Y4.128
X3.5027Y3.8191
X3.5027Y3.7191
X3.584Y4.228
X3.584Y4.128
X3.684Y4.228
X3.684Y4.128
X3.727Y2.593
X3.727Y2.493
X3.784Y4.228
X3.784Y4.128
X3.884Y4.228
X3.884Y4.128
X3.984Y4.228
X3.984Y4.128
X4.084Y4.228
X4.084Y4.128
X4.184Y4.228
X4.184Y4.128
X4.284Y4.228
X4.284Y4.128
X4.384Y4.228
X4.384Y4.128
X4.484Y4.228
X4.484Y4.128
X4.584Y4.228
X4.584Y4.128
X4.6258Y3.138
X4.684Y4.228
X4.684Y4.128
X4.7258Y3.138
X4.784Y4.228
X4.784Y4.128
X4.884Y4.228
X4.884Y4.128
X4.984Y4.228
X4.984Y4.128
X5.2068Y2.555
X5.207Y2.41
X5.3068Y2.555
X5.307Y2.41
T9
X2.098Y3.8754
X2.098Y3.5924
X2.098Y3.0269
X2.098Y3.3099
X2.283Y3.8754
X2.283Y3.5924
X2.283Y3.0269
X2.283Y3.3099
X2.468Y3.8754
X2.468Y3.5924
X2.4681Y3.0269
X2.4681Y3.3099
T10
X4.5228Y2.4478
X5.0402Y2.4478
T11
X2.1654Y4.154
X2.1654Y2.2087
X5.2165Y4.1535
X5.2165Y2.2087
T5
G00X3.6704Y2.3369
M15
G01X3.6704Y2.2936
M16
G05
G00X3.6704Y2.1625
M15
G01X3.6704Y2.1389
M16
G05
G00X4.0106Y2.3369
M15
G01X4.0106Y2.2936
M16
G05
G00X4.0106Y2.1625
M15
G01X4.0106Y2.1389
M16
G05
G00X4.0924Y2.3369
M15
G01X4.0924Y2.2936
M16
G05
G00X4.0924Y2.1625
M15
G01X4.0924Y2.1389
M16
G05
G00X4.4326Y2.3369
M15
G01X4.4326Y2.2936
M16
G05
G00X4.4326Y2.1625
M15
G01X4.4326Y2.1389
M16
G05
T6
G00X2.679Y4.2706
M15
G01X2.679Y4.2509
M16
G05
G00X2.679Y4.0068
M15
G01X2.679Y3.9872
M16
G05
G00X2.927Y4.2706
M15
G01X2.927Y4.2509
M16
G05
G00X2.927Y4.1446
M15
G01X2.927Y4.125
M16
G05
G00X2.927Y4.0068
M15
G01X2.927Y3.9872
M16
G05
G00X4.9794Y3.9454
M15
G01X5.0503Y3.9454
M16
G05
G00X4.9794Y3.3746
M15
G01X5.0503Y3.3746
M16
G05
G00X5.2338Y3.9454
M15
G01X5.2653Y3.9454
M16
G05
G00X5.2338Y3.3746
M15
G01X5.2653Y3.3746
M16
G05
T0
M30
